/* XPM */
static char *dummy[]={
"59 59 760 2",
"Qt c None",
"hM c None",
"b4 c None",
"eT c None",
"fP c None",
"cC c None",
"b5 c None",
"a. c None",
"#x c None",
"#L c None",
".b c None",
"jD c None",
"#j c None",
"je c #808080",
"h2 c #e1dfe0",
"hZ c #e3e3e0",
"a9 c #fbfbfb",
"b6 c #fbfdfd",
"jE c #fcfcfc",
"hD c #fdfcfc",
"gB c #fdfdfd",
".g c #ffffff",
"hG c #a5a3a5",
"gZ c #c1bfc1",
".a c #ffffff",
"jT c #716f70",
"ju c #989898",
"j1 c #a3a3a3",
"b7 c #a4ffff",
"hh c #cdcfcf",
"aR c #e3e5e5",
".# c #fbfbfb",
".o c #ffffff",
"hi c #6b6a6a",
"iS c #acaaaa",
"#F c #acabab",
"jY c #bdbebd",
"i6 c #ffffff",
"iP c #959394",
"eS c #adabac",
"af c #d9d9da",
"ip c #e1e3e3",
"ix c #f1f2f2",
".f c #ffffff",
"#C c #888787",
"aD c #a2a0a1",
"j0 c #c2c2c3",
"ig c #e3e4e4",
"js c #fffeff",
"#m c #ffffff",
"gW c #989596",
"cs c #a6a6a6",
"jv c #d3d3d3",
"gd c #595758",
"il c #686768",
"#n c #858585",
"jZ c #9d9d9d",
"fX c #b7b7b8",
"gL c #727273",
"ci c #ffffff",
"gR c #7e7b7c",
"jV c #7e7d7d",
"jr c #818080",
"jw c #858384",
"en c #918f90",
"dL c #9d9d9d",
"a# c #abaaab",
".0 c #757374",
".9 c #818080",
"ji c #848484",
"dt c #878687",
"ey c #919090",
"dq c #ffffff",
"ib c #a3a3a4",
"ha c #6c696a",
"it c #a9a8a9",
".x c #706e6f",
"#u c #a3a1a2",
".u c #969495",
"hL c #656465",
"gA c #676566",
"#9 c #727271",
"jm c #7c7b7c",
"b. c #858485",
"#M c #a19e9f",
"fn c #adadae",
"iA c #7d7b7c",
"iJ c #868586",
"fF c #989999",
"#A c #535051",
"d# c #747374",
"#X c #939192",
"bj c #a3a3a3",
"gK c #696667",
"bP c #6f6d6e",
"aZ c #706e6f",
"hW c #807e7e",
"jx c #959495",
"cY c #bba592",
"gT c #595757",
".M c #626061",
"#2 c #767575",
"e4 c #7b797a",
"iN c #575455",
"gy c #706e6f",
"#s c #767475",
"df c #7f7f7f",
"ch c #a09e9f",
"cj c #d5cbc1",
"#. c #5f5d5e",
"hv c #5f5e5e",
"hc c #676566",
".P c #6e6b6c",
"h7 c #6f6f6f",
".4 c #807e7f",
"bi c #9d9c9d",
"e1 c #818892",
"i2 c #6d6c6c",
"h9 c #818080",
".c c #898788",
".j c #8c8b8c",
"gf c #565455",
"fM c #696769",
"#p c #5e5b5c",
"fB c #7d7b7c",
"iI c #878586",
"ap c #5b5959",
"hw c #5b595a",
"ao c #686667",
"jb c #737071",
"iY c #737172",
"d8 c #a9a8a9",
"bv c #797778",
"gC c #b9a18b",
".3 c #535051",
"i. c #828181",
"#k c #535051",
"hX c #5e5b5c",
"hq c #6a6768",
"fO c #6b6869",
"bX c #6b6969",
"d5 c #b9a593",
"g2 c #585557",
"g4 c #5f5d5e",
"ac c #666565",
"jk c #696768",
"jj c #716f70",
"fI c #ab8c71",
"bk c #5b5758",
"fq c #676667",
"jF c #6b6a6a",
"jQ c #797777",
"g8 c #545152",
"ea c #979595",
"jp c #5a5758",
"#H c #5a595a",
"bQ c #6a696a",
"ar c #5a5859",
"gU c #605e5f",
"jR c #676566",
"gG c #aa927b",
".1 c #4e4b4c",
"#I c #5f5c5d",
"a8 c #555152",
"bE c #5b5859",
".G c #5d5b5c",
".7 c #656363",
".N c #716f70",
"gg c #bca693",
"h. c #3b393a",
"fZ c #575456",
"eo c #585556",
"bh c #332f30",
"fH c #35363b",
".A c #5f5d5e",
"jh c #6e6d6d",
"br c #373536",
"aA c #5b5859",
".I c #5b595a",
"gN c #797677",
"hs c #474546",
"e3 c #4d4a4b",
".6 c #514f50",
"id c #6d6b6c",
"cD c #b29b87",
"hI c #5a5858",
"iB c #494849",
"e# c #525051",
"cP c #575556",
"iV c #646262",
"ev c #817c7a",
"hJ c #4c4a4b",
"#O c #535152",
"#K c #6d6c6c",
"d9 c #747172",
"e. c #474546",
"dh c #65686d",
"gX c #4c494a",
"f7 c #565354",
"iC c #615f60",
"h4 c #656364",
".y c #727071",
"bw c #565253",
"i1 c #575455",
"dR c #605d5e",
"jX c #646263",
"bL c #383536",
"g7 c #525051",
"f0 c #a48a71",
"ct c #3e3b3c",
"#a c #484445",
"aM c #4e4c4d",
"hn c #535051",
"eb c #625e5f",
"ex c #4e4b4c",
"jt c #717070",
"iz c #322f30",
"gx c #444142",
"im c #6c6a6b",
"#P c #4c494a",
"cO c #514e4f",
"fA c #605c5d",
"bu c #6c6a6b",
"iR c #454243",
"jC c #494647",
"i7 c #636162",
"hT c #636263",
".h c #656263",
"ii c #373435",
"jo c #3e3b3c",
"j. c #4d4b4c",
"eG c #a58466",
"hz c #423f40",
"jS c #525050",
"bY c #444142",
"cd c #454343",
"#g c #4c4a4a",
"jL c #525051",
"f# c #595758",
"fk c #646263",
"fs c #706e6e",
"hR c #4a4747",
"iF c #545253",
"dK c #504d4e",
"hf c #464444",
"jI c #555354",
"jN c #5e5c5d",
"jW c #605d5e",
"hl c #474445",
"dJ c #484b52",
"#h c #5c5a5b",
"jB c #444243",
".Y c #545152",
"fm c #5e5c5d",
"jJ c #524f50",
"fQ c #545051",
"cL c #5b5d61",
"gD c #a1856c",
"ga c #524f50",
"gQ c #525051",
"ic c #717071",
"g1 c #454343",
"c8 c #4f4f52",
"#q c #4a4748",
".D c #4d4b4b",
"fS c #514f4f",
"dS c #585556",
"dg c #5d5a5b",
"ij c #454243",
"aB c #474445",
"hP c #4b4748",
"gF c #9f8066",
"am c #454142",
".n c #4b4849",
"ab c #3d3b3c",
"gp c #3f3f44",
"hF c #4d4b4c",
"jK c #4f4c4d",
"f9 c #4f4d4e",
"jf c #535152",
"h0 c #454243",
"cq c #565354",
"bI c #666264",
"f4 c #83674e",
"eQ c #3f4146",
"hp c #454243",
"iq c #4e4b4c",
"as c #4f4b4c",
"bF c #4d4b4c",
"hk c #585556",
"i5 c #595657",
"#d c #3c393a",
"fw c #403d3e",
"gv c #4c494a",
"i8 c #555354",
"#b c #5f5d5e",
"gE c #97765a",
"f6 c #434041",
"gq c #403d3e",
"g5 c #4d4b4c",
"iU c #3c393a",
"#Y c #434041",
"h5 c #3d393a",
"ae c #413e3f",
"jU c #514f50",
"hd c #423e3f",
"dI c #875f3b",
"eJ c #494546",
"#z c #494546",
"eU c #403e3f",
"gH c #464548",
".v c #484546",
"#y c #454243",
"jd c #565455",
"hU c #494647",
".T c #4d4a4b",
"gc c #3d393a",
"jA c #454243",
"cX c #4b494a",
"hO c #444142",
"cB c #4f4c4d",
"el c #3d3d42",
"hx c #413d3f",
"fy c #474345",
"#c c #545151",
"ek c #8f6845",
"fh c #3e3a3b",
"hy c #3f3b3d",
"cc c #403d3e",
"if c #434041",
"gO c #4a4647",
".e c #5a5758",
"gu c #454344",
".X c #423f40",
"j# c #403d3e",
".S c #4a4748",
"c7 c #5b4e46",
".F c #403d3e",
"iu c #474345",
"gt c #484546",
".d c #555354",
"hu c #413e3f",
"di c #87613f",
"eP c #875e39",
"ht c #3e3c3c",
"aL c #383536",
"hB c #3c3839",
"fo c #514f50",
"iX c #454242",
"jM c #454243",
".i c #4d4b4c",
"aS c #383536",
"hQ c #3c3839",
"ie c #3e3c3d",
"jl c #595758",
"g. c #413e3f",
"#r c #434041",
"eI c #3a3637",
".W c #3d3a3b",
"du c #3e3b3c",
".B c #3f3c3d",
"#W c #474445",
"h3 c #5d5a5b",
"#Z c #403e3f",
".Z c #514e4f",
"#w c #3c393a",
"jn c #3d3b3c",
"ck c #7c5e43",
"gb c #3c393a",
"#G c #555354",
"hj c #575556",
".t c #585656",
"iE c #413e3f",
"#D c #454243",
".Q c #4b494a",
"hY c #4c4849",
"#e c #3e3c3d",
".V c #383536",
"gI c #3b3839",
"d. c #383536",
"#v c #343233",
"iM c #3c393a",
"bt c #3d3a3b",
"fl c #3f3d3e",
"iK c #434041",
"dM c #464344",
"#S c #4a4748",
"#i c #494647",
".J c #4f4c4d",
"hA c #3e3a3b",
"al c #413f40",
"d7 c #393637",
"#1 c #393435",
"hm c #3d3b3b",
"fW c #383536",
"bK c #3c393a",
".U c #3e3b3c",
"#f c #403d3d",
"iO c #434041",
"#E c #3c393a",
"ca c #433f40",
"ja c #383436",
"h6 c #3a3738",
"hN c #373334",
"aC c #3e3b3c",
"dy c #464344",
"he c #3a3638",
"dx c #484546",
"ik c #524f51",
"ho c #3d393a",
"i9 c #3b393a",
"fV c #474445",
"gs c #525050",
"#B c #3c393a",
".R c #403d3e",
"gr c #3a3738",
".p c #3d3a3b",
"#t c #423f40",
"gh c #886442",
"hC c #343132",
"fi c #3a3839",
"iw c #3f3c3d",
"#0 c #363334",
".E c #403c3d",
"eX c #464445",
"hH c #3e3c3c",
".K c #3e3c3c",
"#N c #585556",
"#Q c #3b3839",
"#R c #3d3a3b",
"jg c #4d4b4c",
"f5 c #383536",
"#o c #403d3e",
"fT c #383435",
"h# c #383536",
"jP c #423e3f",
"#J c #474344",
"fg c #353233",
"g0 c #3a3738",
"#l c #423f40",
"gw c #383536",
"bs c #3b3739",
"ag c #3b3839",
"jc c #454243",
"ft c #835832",
"h1 c #3a3637",
"iZ c #3d393a",
"g9 c #3c393a",
"e0 c #7c532e",
"b8 c #302f31",
"eH c #323032",
"io c #383536",
"hV c #585657",
"gY c #393637",
"is c #3b3738",
"iQ c #383536",
"fb c #534b49",
"dQ c #3d3a3b",
"dA c #474141",
"gn c #825a37",
"fx c #373335",
"ia c #353133",
".8 c #3d3a3a",
"aq c #423f40",
"i3 c #454243",
"hE c #353132",
"gS c #3a3738",
"hb c #393637",
"iv c #3b3738",
"hg c #383536",
".l c #403e3f",
"fL c #7c5431",
"jz c #302c2d",
"a0 c #322e2f",
"#8 c #373334",
"gV c #3c3839",
".z c #4a4849",
"fE c #333031",
"jq c #383536",
"iH c #3d393a",
"aQ c #272425",
"dr c #312e2f",
".5 c #343132",
"gz c #373435",
"gM c #474444",
"go c #51453d",
"aE c #322e2f",
"ih c #393637",
"ge c #312e2f",
"iT c #332f31",
"iy c #333031",
"gJ c #383536",
"jG c #393637",
"dp c #754c2a",
"b3 c #2c2829",
"cM c #322f30",
"jy c #343031",
".s c #3d3b3c",
"i4 c #3c393a",
"cE c #7e5633",
"cr c #2f2c2d",
".k c #383435",
"eR c #322f30",
"#T c #383435",
"cZ c #7d5634",
"aa c #333031",
".H c #3b3739",
".O c #3f3c3d",
"ff c #764d28",
"fN c #373435",
"c# c #2c292a",
"#3 c #332f30",
"fY c #333031",
".w c #343031",
"eu c #784f2a",
"ez c #2f2b2c",
".L c #343132",
"cp c #2b282a",
"cz c #393536",
"fv c #764d28",
"i0 c #3d3a3b",
"d6 c #2e2c2d",
"fG c #302d2e",
"jO c #3f3b3d",
"fr c #2e2a2c",
"cA c #393637",
"## c #363233",
"hK c #322f30",
"dB c #794f29",
"iW c #373335",
"e5 c #2b2728",
"g3 c #312d2e",
"fa c #2d2a2b",
".q c #3f3c3d",
"d4 c #724721",
"f1 c #7a512e",
"em c #2f2c2d",
"fj c #302c2d",
"e2 c #322e2f",
"fJ c #79502d",
"cg c #2b2829",
"#V c #322e30",
".2 c #353233",
"f8 c #363334",
"b# c #2d292a",
"iG c #333031",
"ds c #2d282a",
".m c #383536",
"fp c #2a2728",
"hr c #312d2e",
"e9 c #343031",
"bO c #231f20",
"jH c #332f30",
"hS c #3f3c3d",
"aY c #231f20",
"da c #2c292a",
"in c #302c2d",
"e8 c #2f2c2d",
"iD c #343031",
"bR c #292627",
"dw c #322e2f",
"fC c #2f2c2d",
"bJ c #353132",
"g6 c #353233",
"bH c #2c2829",
"de c #2e2a2b",
"dN c #322e2f",
"gP c #333031",
"bW c #2a2627",
"fU c #2b2728",
"ew c #2e2a2c",
"fR c #333031",
"h8 c #393637",
"gi c #784e29",
"eY c #292526",
"dz c #282526",
".r c #302c2d",
"bl c #2a2627",
"dv c #2d2a2b",
"gm c #754b25",
"fz c #312d2e",
"i# c #3f3c3d",
"an c #2e2a2b",
"e6 c #2f2b2c",
"bD c #211d1e",
"f. c #272324",
"a7 c #262223",
"az c #272324",
"ep c #282425",
"bq c #211d1e",
"bg c #231f20",
"fD c #302c2d",
"#U c #2d292a",
"dW c #3b2f28",
"bU c #292627",
"cQ c #282526",
"ir c #2d292a",
"cK c #352922",
"cy c #262223",
"aN c #282425",
"ad c #2b2829",
"g# c #2c292a",
"fc c #55371e",
"dT c #272324",
"bx c #282425",
"dO c #2d292a",
"eF c #71461f",
"dP c #262223",
"cN c #272325",
"bG c #282324",
"bT c #363334",
"dX c #72451d",
"a1 c #1b1618",
"dc c #1b1718",
"ak c #1c1819",
"cI c #1c191c",
"au c #1d1819",
"ai c #1d191a",
"aF c #1e1a1b",
"co c #1e1b1e",
"ba c #1f1b1c",
"aj c #201c1d",
"db c #201d1e",
"c3 c #201d20",
"d1 c #201e20",
"dd c #211c1e",
"#6 c #211d1e",
"dV c #211e1f",
"c4 c #211e20",
"d0 c #211e21",
"cW c #221d1e",
"#5 c #221e1f",
"dl c #221e20",
"dE c #221f20",
"cR c #231e1f",
"eA c #231e20",
"ah c #231f20",
"dU c #231f21",
"eg c #241f1f",
"#4 c #242021",
"dD c #252020",
"#7 c #252122",
"cu c #252223",
"cb c #262123",
"bV c #262223",
"c9 c #272324",
"at c #282425",
".C c #282526",
"eC c #29211f",
"ec c #292526",
"e7 c #292627",
"eq c #2a2220",
"bm c #2a2627",
"ef c #2b221f",
"dZ c #2b231f",
"eB c #2b2728",
"eV c #2c2728",
"eK c #2c282a",
"cx c #2d292a",
"aK c #2d292b",
"iL c #2e2a2b",
"cJ c #2f241e",
"ed c #30251e",
"c. c #312e2e",
"dm c #32261f",
"by c #343031",
"eW c #343132",
"d2 c #36281e",
"bZ c #363334",
"er c #39291e",
"bM c #393637",
"ay c #3a3738",
"eZ c #3b2a1e",
"b9 c #3d3a3b",
"cH c #3e2a1c",
"es c #3f2c1e",
"cS c #413d3f",
"b2 c #413e3f",
"eM c #444041",
"c2 c #48301d",
"aT c #4b4748",
"eN c #4e331d",
"aG c #4f4c4d",
"dk c #52351c",
"c5 c #53351c",
"cn c #534c4a",
"dF c #55361c",
"cl c #57371c",
"dC c #5a391b",
"eh c #5c391b",
"bo c #5c5a5b",
"bc c #5d5a5b",
"dY c #603b1a",
"ee c #603b1b",
"eD c #643d1b",
"bd c #676464",
"c6 c #683f1c",
"av c #686565",
"fd c #6a401a",
"dn c #6c401b",
"cm c #6c4d33",
"eE c #6d4119",
"dG c #6d411a",
"f3 c #6d441f",
"bS c #6d6b6b",
"fe c #6e411a",
"d3 c #6e421a",
"et c #6f4119",
"ei c #6f421a",
"fK c #704219",
"c1 c #70421a",
"c0 c #70431a",
"cG c #714219",
"do c #714319",
"fu c #71431a",
"eO c #71431b",
"dH c #71441c",
"f2 c #72431a",
"ej c #72451c",
"gj c #724720",
"aP c #726f70",
"cF c #73451c",
"dj c #73451d",
"gk c #744720",
"gl c #744821",
"bN c #777575",
"cV c #7a7879",
"a2 c #858283",
"a3 c #8f8d8e",
"a4 c #939191",
"aV c #9e9c9d",
"bC c #a2a0a1",
"cf c #a4a2a3",
"cv c #a7a5a5",
"ax c #a7a6a7",
"eL c #a9a7a8",
"aX c #a9a8a8",
"bb c #b2b1b2",
"cw c #b8b7b7",
"bp c #bcbbbb",
"aO c #bdbdbd",
"cT c #c1c0c1",
"a6 c #c2c1c1",
"bf c #c6c5c5",
"aw c #c6c6c6",
"cU c #c7c6c7",
"aU c #cac9ca",
"aJ c #cdcdcd",
"bn c #d9d9d9",
"ce c #dbdbdc",
"a5 c #e4e3e3",
"be c #e5e3e4",
"bz c #eaeaea",
"b0 c #ebebeb",
"bA c #eeeeee",
"b1 c #f3f3f3",
"aH c #f4f4f4",
"bB c #f8f9f9",
"aW c #fdfdfd",
"aI c #ffffff",
"QtQtQtQtQtQtQtQtQtQtQtQtQtQtQtQtQtQtQtQtQtQtQtQtQtQtQtQtQtQtQtQtQtQtQtQtQtQtQtQtQtQtQtQtQtQtQtQtQtQtQtQtQtQtQtQtQtQtQt",
"QtQtQtQtQtQtQtQtQt.#.a.bQtQtQtQtQtQtQtQtQtQtQtQtQtQtQtQtQtQtQtQtQtQtQtQtQtQtQtQtQtQtQtQtQtQtQtQtQtQtQtQtQtQtQtQtQtQtQt",
"QtQtQtQtQtQtQtQtQtQtQtQt.c.d.e.fQtQtQtQtQtQtQtQtQtQtQtQtQtQtQtQtQtQtQtQtQtQtQtQtQtQtQtQtQtQtQtQtQtQtQtQtQtQtQtQtQtQtQt",
"QtQtQtQtQtQtQtQt.g.h.i.j.k.l.m.nQtQtQtQtQtQtQtQtQtQtQtQtQtQtQtQtQtQtQtQtQtQtQtQtQtQtQtQtQtQtQtQtQtQtQtQtQtQtQtQtQtQtQt",
"QtQtQtQtQtQtQt.o.p.q.r.s.t.u.v.w.xQtQtQtQtQtQtQtQtQtQtQtQtQtQtQtQtQtQtQtQtQtQtQtQtQtQtQtQtQtQtQtQtQtQtQtQtQtQtQtQtQtQt",
"QtQtQtQtQtQtQt.y.z.A.B.C.DQt.g.E.FQtQtQtQtQtQtQtQtQtQtQtQtQtQtQtQtQtQtQtQtQtQtQtQtQtQtQtQtQtQtQtQtQtQtQtQtQtQtQtQtQtQt",
"QtQtQtQtQtQt.G.H.IQt.J.K.L.MQt.N.O.PQtQtQtQtQtQtQtQtQtQtQtQtQtQtQtQtQtQtQtQtQtQtQtQtQtQtQtQtQtQtQtQtQtQtQtQtQtQtQtQtQt",
"QtQtQtQtQtQt.Q.RQt.S.TQt.U.VQtQt.W.XQtQtQtQtQtQtQtQtQtQtQtQtQtQtQtQtQtQtQtQtQtQtQtQtQtQtQtQtQtQtQtQtQtQtQtQtQtQtQtQtQt",
"QtQtQtQtQt.Y.Z.0.1.2.3Qt.4.5.6Qt.7.8.9QtQtQtQtQtQtQtQtQtQtQtQtQtQtQtQtQtQtQtQtQtQtQtQtQtQtQtQtQtQtQtQtQtQtQtQtQtQtQtQt",
"QtQtQtQt#.###aQt#b#cQtQtQt#d#eQtQt#f#gQtQtQtQtQtQtQtQtQtQtQtQtQtQtQtQtQtQtQtQtQtQtQtQtQtQtQtQtQtQtQtQtQtQtQtQtQtQtQtQt",
"QtQtQtQt#h#i#j#k#l#m#jQtQt#n#o#pQt#q#rQtQtQtQtQtQtQtQtQtQtQtQtQtQtQtQtQtQtQtQtQtQtQtQtQtQtQtQtQtQtQtQtQtQtQtQtQtQtQtQt",
"QtQtQt#s#t#uQt#v#wQt#xQtQtQt#y#zQt#A#B#CQtQtQtQtQtQtQtQtQtQtQtQtQtQtQtQtQtQtQtQtQtQtQtQtQtQtQtQtQtQtQtQtQtQtQtQtQtQtQt",
"QtQtQt#D#EQt#F#G#HQtQtQtQtQt#I#tQt.f#J#KQtQt#LQtQtQtQtQtQtQtQtQtQtQtQtQtQtQtQtQtQtQtQtQtQtQtQtQtQtQtQtQtQtQtQtQtQtQtQt",
"QtQt#M#N#OQt#P#QQtQtQtQtQtQt.a#R#S#T#U#V#W#XQtQtQtQtQtQtQtQtQtQtQtQtQtQtQtQtQtQtQtQtQtQtQtQtQtQtQtQtQtQtQtQtQtQtQtQtQt",
"QtQt#Y#ZQt.g#0#1QtQtQtQtQtQt#2#3#4#5#5#6#7#8#9Qta.QtQtQtQtQtQtQtQtQtQtQtQtQtQtQtQtQtQtQtQtQtQtQtQtQtQtQtQtQtQtQtQtQtQt",
"Qta#aaabQtacadaeQtQtQtQtQtafag#4ahahaiajak#6alQta.QtQtQtQtQtQtQtQtQtQtQtQtQtQtQtQtQtQtQtQtQtQtQtQtQtQtQtQtQtQtQtQtQtQt",
"QtamanaoQtapaqarQtQtQtQtQtasat#5ahauavawaxayazaAQtQtQtQtQtQtQtQtQtQtQtQtQtQtQtQtQtQtQtQtQtQtQtQtQtQtQtQtQtQtQtQtQtQtQt",
"QtaBaC.aQtQt.aQtQtQtQtQtaDaEahahaFaGaHaIaIaJaKaLQtQtQtQtQtQtQtQtQtQtQtQtQtQtQtQtQtQtQtQtQtQtQtQtQtQtQtQtQtQtQtQtQtQtQt",
"QtQt#jQtQtQtQt#jQtQtQtQtaMaNahahajaOaIaIaIaIaPaQaRQtQtQtQtQtQtQtQtQtQtQtQtQtQtQtQtQtQtQtQtQtQtQtQtQtQtQtQtQtQtQtQtQtQt",
"QtQtQtQtQtQtQtQtQtQtQtQtaS#7ahaFaTaUaVaWaIaIaXaYaZQtQtQtQtQtQtQtQtQtQtQtQtQtQtQtQtQtQtQtQtQtQtQtQtQtQtQtQtQtQtQtQtQtQt",
"QtQtQtQtQtQtQtQtQtQtQt.aa0ahaha1a2a3a4a5aIaIa6a7a8QtQtQtQtQtQtQtQtQtQtQtQta9QtQta.QtQtQtQtQtQtQtQtQtQtQtQtQtQtQtQtQtQt",
"QtQtQtQtQtQtQtQtQtQtQtb.b#ahahbabbbcbdbeaIaIbfbgbhQtQtQtQtQtQtQtQtQtQtQtQtQtbibjQtQtQtQtQtQtQtQtQtQtQtQtQtQtQtQtQtQtQt",
"QtQtQtQtQtQtQtQtQtQtQtbkblah#6bmbnboaPaWaIaIbpbqbrQtQtQtQtQtQtQtQtQtQtQtQt.gbsbtQtbubvQtQtQtQtQtQtQtQtQtQtQtQtQtQtQtQt",
"QtQtQtQtQtQtQtQtQtQtQtbwbx#5ajbybzbAbBaIaIaIbCbDbEQtQtQtQtQtQtQtQtQtQt#jQtbFbGbHbIbJbKQtQtQtQtQtQtQtQtQtQtQtQtQtQtQtQt",
"QtQtQtQtQtQtQtQtQtQtQtbL#7ahbabMbAaIaIaIaIaIbNbObPQtQtQtQtQtQtQtQtQtQtQtbQbRbSbTbUbVbWbXQtQtQtQtQtQtQtQtQtQtQtQtQtQtQt",
"QtQtQtQtQtQtQtQtQtQtQtbYbVahajbZb0aIaIaIaIb1b2b3.oQtb4b5QtQtQtQtQtb6Qtb7b8b9a6c.c#cacbccQtQtQtQtQtQtQtQtQtQtQtQtQtQtQt",
"QtQtQtQtQtQtQtQtQtQtQtcdbVah#6bmceaIaIaIaIcfaFcgchciQtQtQtQtQtQtQtQtcjckclcmcncocpcqbVcrcsQtQtQtQtQtQtQtQtQtQtQtQtQtQt",
"QtQtQtQtQtQtQtQtQtQtQtctcuahahakcvaIaIaIcwcxajcyczcAcB.aQtQta.cCQtcDcEcFcGcHcIcJcKcLcMcNcOQtQtQtQtQtQtQtQtQtQtQtQtQtQt",
"QtQtQtQtQtQtQtQtQtQtQtcPcQcRahbacScTcUcVbVajahah#5cWatcXQtQtQtQtcYcZc0c1c2c3c4c5c6c7c8c9d.QtQtQtQtQtQtQtQtQtQtQtQtQtQt",
"QtQtQtQtQtQtQtQtQtQtQtd#da#5ahahajdbdbdcddahahahahah#5dedfQtdgdhdidjc1dkdlc3dmdndodpdqdrdsdtQtQtQtQtQtQtQtQtQtQtQtQtQt",
"QtQtQtQtQtQtQtQtQtQtQtQtdubV#5#5ah#5cWahdvdw#5ahahahah#4dxdydzdAdBdodCdDdldEdFc1dGdHdIdJbmdKQtQtQtQtQtQtQtQtQtQtQtQtQt",
"QtQtQtQtQtQtQtQtQtQtQtQtdLdMdNdOdPbx.rdQdRdSdTahahahahahbVdUdVdWdXdYdZd0d1d2dGdGdGd3d4d5d6d7QtQtQtQtQtQtQtQtQtQtQtQtQt",
"QtQtQtQtQtQtQtQtQtQtQtQtQtQtd8d9e.e#eaQtQtebecahahahahahahahc4edeeefc4ahegeheidGdGdGejekelemenQtQtQtQtQtQtQtQtQtQtQtQt",
"QtQtQtQtQtQtQtQtQtQtQtQta.#jQtQtQtQtQtQtQteoepahahahah#5ahahdEeqerc4ahc3eseidGdGdGdGeteuevewexQtQtQtQtQtQtQtQtQtQtQtQt",
"QtQtQtQtQtQtQtQtQtQtQtQtQtQtQtQtQtQtQtQtQteyezeAahah#6eB#7ahahdEdEahdleCeDd3dGdGdGdGeEeFeGeHeIQtQtQtQtQtQtQtQtQtQtQtQt",
"QtQtQtQtQtQtQtQtQtQtQtQtQtQtQtQtQtQtQtQtQtQteJbVah#6eKeLeMba#7dU#5ahc3eNc1dGdGdGdGdGdGeOePeQeReSQtQtQtQtQtQtQtQtQtQtQt",
"QtQtQtQtQtQtQtQtQtQtQtQtQtQtQtQtQtQtQtQteTQteU#7ahcWeVaGeWaheXeY#7c3eZdGdGdGdGdGdGdGdGc1e0e1e2e3QtQtQtQtQtQtQtQtQtQtQt",
"QtQtQtQtQtQtQtQtQtQtQtQtQtQtQtQtQtQtQtQtQte4e5e6#7e7e8e9ahf.f#fafbfcfdfedGdGdGdGdGdGdGeiff.gfgfhQtQtQtQtQtQtQtQtQtQtQt",
"QtQtQtQtQtQtQtQtQtQtQtQtQtQtQtQtQtQtQtQt.gfifjfkflfmfnfo#4fpfqfrfsftfudGdGdGdGdGdGdGdGeifv.gfwfx.gQtQtQtQtQtQtQtQtQtQt",
"QtQtQtQtQtQtQtQtQtQtQtQtQtQtQtQtQtQtQtQtfyfzfAQtQtQtfBfCfDfEfFfGfHfIfJetdGdGdGdGdGdGdGfKfL.gfMfNfOQtQtQtQtQtQtQtQtQtQt",
"QtQtQtQtQtQtQtQtQtQtQtQtQtQtQtQtQtfPQtfQfRfSQtfPQt.afTfUfVfWfXfYfZQtf0f1f2eEeEeEeEeEfKf3f4QtQtf5f6QtQtQtQtQtQtQtQtQtQt",
"QtQtQtQtQtQtQtQtQtQtQtQtQtQtQtQtQt#jf7f8f9QtQtQtQtg.g#gagbgcgdgegfQtQtggghgigjgkglgmgngogpQtQtgqgrQtQtQtQtQtQtQtQtQtQt",
"QtQtQtQtQtQtQtQtQtQtQtQtQtQtQtQtQtQtgsgtQt#j#jQtgufDgvQtgwgxgygzgAQtgB.o.fgCgDgEgFgG.agHgIQtQt#pgJgKQtQtQtQtQtQtQtQtQt",
"QtQtQtQtQtQtQtQtQtQtQtQtQtQtQtQtQtgLgMgNQta.QtgOgPgQQtgRgSgTgUgVgWQtQtQtQtQtQtQtQtQtQtgXgYgZQtQtg0g1QtQtQtQtQtQtQtQtQt",
"QtQtQtQtQtQtQtQtQtQtQtQtQtQtQtQtQtg2g3g4QtQtg5g6g7QtQtg8g9.gh.h#.gQtQtQtQtQtQtQtQtQtQthahbhcQtQthdheQtQtQtQtQtQtQtQtQt",
"QtQtQtQtQtQtQtQtQtQtQtQtQtQtQtQtQthfhghhQthihjhkQtQtQthlhmQthnhoQtQtQtQtQtQtQtQtQtQtQtQtfThpQtQthqhrhsQtQtQtQtQtQtQtQt",
"QtQtQtQtQtQtQtQtQtQtQtQtQtQtQtQtQththuQtQthv.LhwQtQtQthxhyQthzhAQtQtQtQtQtQtQtQtQtQtQtQthBhCQthD.ghEhFQtQtQtQtQtQtQtQt",
"QtQtQtQtQtQtQtQtQtQtQtQtQtQtQtQthGhHhIQtQthJhKhLQtQthMhNhOQthPhQQtQtQtQtQtQtQtQtQtQtQtQthRhShTQtQthUhVhWQta.QtQtQtQtQt",
"QtQtQtQtQtQtQtQtQtQtQtQtQtQtQtQthXhYhZQtQth0h1QtQtQth2h3h4Qth5h6QtQtQtQtQtQtQtQtQtQtQtQth7h8emh9Qti.i#iaibQtQtQtQtQtQt",
"QtQtQtQtQtQtQtQtQtQtQtQtQteTQt.gicidQtQtQtieifQtQtQtigihiiQtijikilQtQtQtQtQtQtQtQtQtQtQt.giminioipQtiqirisitQtb5QtQtQt",
"QtQtQtQtQtQtQtQtQtQtQtQtQtQtQtiuivQtQtQt.giw#OQtQtQtixiyizQtiA.LiBQtQtQtQtQtQtQtQtQtQtQtQtQtiCiDiE#jQtiFiGiHiIQtQtQtQt",
"QtQtQtQtQtQtQtQtQtQtQtQtQtiJiKiLiMQtQtQtiNiOiPQtQtQtQtiQiRQtiSiTiUQtQtQtQtQtQtQtQtQtQtQtQtQtQtiViWiXQtQtiYiZi0i1QtQtQt",
"QtQtQtQtQtQtQtQtQtQtQtQti2i3i4i5i6QtQtQti7i8QtQtQtQtQti9j.QtQtj#jaQtQtQtQtQtQtQtQtQtQtQtQtQtQtQtjbjcjdjeQt#jjfjgjhQtQt",
"QtQtQtQtQtQtQtQtQtQtQtQtjijj#mQtQta.QtjkjljmQtQtQtQtQtjnjoQtQtjpjqjrQtQtQtQtQtQtQtQtQtQtQtQtQtQtQtjsjtjuQtQtQtjvjwQtQt",
"QtQtQtQtQtQtQtQtQtQtQtQtQtQtQtQtQtQtjxjyjzQtQtQtQtQtQtjAjBQtQt#j.RjCQtQtQtQtQtQtQtQtQtQtQtQtQtQtjDQtQtQtQtQtQtQtQtQtQt",
"QtQtQtQtQtQtQtQtQtQtQtQtQtQtQtjEQtjFjGjHjIQtQtQtQtQtQtjJjKQtQtQtjLjMQtQtQtQtQtQtQtQtQtQtQtQtQtQtQtQtQtQtQtQtQtQtQtQtQt",
"QtQtQtQtQtQtQtQtQtQtQtQtQtQtQta.jNjOjPjQQtQtQtQtQtQtQtjRjSQtQtQtjTjUjVQtQtQtQtQtQtQtQtQtQtQtQtQtQtQtQtQtQtQtQtQtQtQtQt",
"QtQtQtQtQtQtQtQtQtQtQtQtQtQtQtQtjWjXQtQt#jQtQtQtQtQtQtjYjZQtQtQtQtj0j1QtQtQtQtQtQtQtQtQtQtQtQtQtQtQtQtQtQtQtQtQtQtQtQt",
"QtQtQtQtQtQtQtQtQtQtQtQtQtQtQtQtQtQtQtQtQtQtQtQtQtQtQtQtQtQtQtQtQtQtQtQtQtQtQtQtQtQtQtQtQtQtQtQtQtQtQtQtQtQtQtQtQtQtQt"};
