/* XPM */
static char *dummy[]={
"59 59 552 2",
".a c None",
"#Z c None",
"f2 c None",
"#F c None",
"bi c None",
".E c None",
"ag c None",
"bv c None",
".o c None",
"bS c #fafafa",
"#c c #fbfbfb",
".d c #fcfcfc",
"bh c #fdfdfd",
"eH c #fefefe",
"ah c #ffffff",
"#G c #fafafa",
"#Y c #fbfbfb",
"aL c #fcfcfc",
"c5 c #ffffff",
"fV c #c5c5c5",
"gc c #d6d6d6",
"eM c #f0f0f0",
"bZ c #f9f9f9",
".D c #ffffff",
"dx c #373737",
"e5 c #9c9c9c",
"go c #afafaf",
"cd c #cdcdcd",
"fH c #ebebeb",
"fk c #f3f3f3",
"au c #ffffff",
"b5 c #f0f0f0",
"ck c #ffffff",
"f9 c #a8a8a8",
"fv c #d6d6d6",
"cl c #e9e9e9",
".n c #ffffff",
"fR c #bababa",
"cH c #e4e4e4",
"c8 c #ffffff",
"cB c #898989",
"gi c #a1a1a1",
"e2 c #a6a6a6",
"gj c #bcbcbc",
"#b c #ffffff",
"bT c #b3b3b3",
"e6 c #c2c2c2",
"dN c #c3c3c3",
"eh c #ffffff",
"fC c #7e7e7e",
"ct c #a8a8a8",
"fI c #898989",
"c4 c #c1c1c1",
"dn c #ffffff",
"gg c #8f8f8f",
"dD c #9e9e9e",
"fE c #aeaeae",
"f5 c #b5b5b5",
"b0 c #e2e2e2",
"fU c #8b8b8b",
"bI c #8c8c8c",
"cU c #787878",
"cW c #9d9d9d",
"ga c #656565",
"fZ c #747474",
"eq c #808080",
".F c #afafaf",
"gr c #c4c4c4",
"fO c #d0d0d0",
"gd c #6a6a6a",
"f0 c #a7a7a7",
"at c #b0b0b0",
"fo c #b4b4b4",
".V c #e6e6e6",
".C c #f9f9f9",
"gt c #aeaeae",
".b c #ffffff",
"bg c #6c6c6c",
"gK c #ffffff",
"ff c #979797",
"f. c #aaaaaa",
"Qt c #ffffff",
"gv c #777777",
".l c #d1d1d1",
".c c #ffffff",
"fX c #707070",
"fL c #a9a9a9",
".p c #bdbdbd",
".k c #9e9e9e",
"gx c #878787",
"#H c #b2b2b2",
"gn c #b8b8b8",
"fi c #707070",
"e4 c #818181",
"f6 c #a6a6a6",
".m c #c5c5c5",
"fu c #949494",
"ds c #a3a3a3",
"eg c #b9b9b9",
"ci c #646464",
"gJ c #7c7c7c",
"cc c #909090",
"e9 c #989898",
".U c #9d9d9d",
"gs c #bcbcbc",
"gl c #797979",
"c9 c #b1b1b1",
"gu c #b6b6b6",
"fr c #787878",
"eN c #7e7e7e",
"dc c #818181",
".e c #a0a0a0",
"gk c #aeaeae",
".# c #ffffff",
"cM c #545454",
"fK c #787878",
"gL c #ffffff",
"et c #9e9e9e",
"ef c #767676",
"g# c #707070",
"eV c #838383",
"cf c #5c5c5c",
"#I c #4f4f4f",
"gA c #7c7c7c",
"fB c #676767",
"e0 c #717171",
"#0 c #868686",
"af c #6d6d6d",
"eK c #767676",
"f1 c #a0a0a0",
"dM c #4d4d4d",
"dP c #505050",
"ch c #676767",
"fP c #707070",
"e# c #7f7f7f",
"fm c #626262",
"#p c #797979",
"cT c #6a6a6a",
"cr c #5c5c5c",
"f3 c #636363",
"eC c #7e7e7e",
"e7 c #686868",
"fF c #6a6a6a",
"cF c #555555",
"b1 c #5c5c5c",
"fS c #636363",
"a5 c #636363",
"dK c #7b7b7b",
"bJ c #4d4d4d",
"fd c #666666",
"bR c #454545",
"fh c #525252",
"eX c #5f5f5f",
"dE c #7b7b7b",
"#d c #727272",
"gG c #7a7a7a",
"fx c #666666",
"#X c #6a6a6a",
"gH c #757575",
"cz c #5d5d5d",
"dt c #858585",
"do c #6a6a6a",
"a4 c #6e6e6e",
"#q c #646464",
"gC c #6e6e6e",
"cq c #5b5b5b",
"gp c #666666",
"f8 c #5c5c5c",
"#E c #656565",
".B c #686868",
"fn c #8a8a8a",
"cy c #4c4c4c",
"eS c #767676",
"cL c #464646",
"fG c #6a6a6a",
"eI c #616161",
"b6 c #6a6a6a",
"eo c #6c6c6c",
"d1 c #737373",
"ge c #5d5d5d",
".W c #6b6b6b",
"cE c #464646",
"dm c #7f7f7f",
"c7 c #707070",
"eZ c #535353",
"dd c #646464",
".j c #707070",
".f c #6f6f6f",
"b7 c #646464",
"d4 c #636363",
"bw c #696969",
".g c #717171",
"eu c #5c5c5c",
"eE c #3d3d3d",
".h c #535353",
"eG c #575757",
"di c #666666",
"gm c #757575",
"ej c #5d5d5d",
"ew c #606060",
".T c #606060",
"ai c #5c5c5c",
"dr c #626262",
"d8 c #494949",
".i c #4e4e4e",
"e. c #515151",
"bu c #535353",
"d6 c #424242",
"gD c #616161",
"d. c #666666",
"fq c #535353",
"#a c #5e5e5e",
"dB c #5c5c5c",
"fN c #5d5d5d",
"fb c #414141",
"fl c #525252",
"f7 c #535353",
"es c #5d5d5d",
"em c #5e5e5e",
"fz c #676767",
"gh c #6e6e6e",
"aM c #4a4a4a",
"dl c #595959",
"aK c #575757",
"eT c #595959",
"gf c #5c5c5c",
"gz c #535353",
"b8 c #474747",
"fa c #4b4b4b",
"ek c #484848",
"av c #4c4c4c",
"dV c #5d5d5d",
"ev c #646464",
"fY c #4f4f4f",
"dA c #535353",
"gb c #555555",
"g. c #696969",
"bY c #333333",
"gy c #4b4b4b",
"d3 c #4f4f4f",
".q c #505050",
"ep c #585858",
"gI c #626262",
"fp c #4b4b4b",
".X c #646464",
"dJ c #494949",
"ee c #373737",
"eO c #555555",
"el c #484848",
"#1 c #4b4b4b",
"cG c #525252",
"cA c #565656",
"eP c #4a4a4a",
"d9 c #555555",
"fW c #4b4b4b",
"cs c #535353",
"d2 c #5b5b5b",
"en c #5c5c5c",
"dp c #5e5e5e",
"cN c #484848",
"eQ c #494949",
"fc c #434343",
"fD c #525252",
"cX c #747474",
"dw c #3c3c3c",
"gq c #545454",
"cj c #484848",
"fj c #565656",
"ce c #494949",
"dU c #555555",
"eJ c #595959",
"fA c #5c5c5c",
"fM c #626262",
"e1 c #5d5d5d",
"dQ c #6f6f6f",
"eD c #313131",
"e3 c #505050",
"bj c #313131",
"fy c #5c5c5c",
"dH c #525252",
"cg c #3d3d3d",
"cV c #474747",
"c6 c #505050",
"f4 c #4d4d4d",
".S c #3e3e3e",
"fg c #626262",
"cO c #535353",
"eY c #4f4f4f",
"dy c #969696",
"#o c #555555",
".Y c #4e4e4e",
"eF c #444444",
"ex c #4f4f4f",
"ei c #2f2f2f",
"fT c #4c4c4c",
"df c #575757",
"fQ c #595959",
"dj c #8b8b8b",
".G c #393939",
"d5 c #323232",
"dq c #595959",
"db c #434343",
"eL c #5f5f5f",
".A c #3d3d3d",
"c3 c #404040",
"fJ c #444444",
"f# c #4b4b4b",
"bU c #3e3e3e",
"d7 c #3f3f3f",
"gF c #585858",
"eB c #4f4f4f",
"d0 c #515151",
"gw c #424242",
"ft c #565656",
"fw c #545454",
"b4 c #3b3b3b",
"dX c #525252",
"fs c #4c4c4c",
"#e c #3f3f3f",
"er c #4a4a4a",
"dW c #505050",
"cm c #444444",
"de c #484848",
"cI c #4e4e4e",
"as c #5a5a5a",
"eW c #323232",
"bf c #717171",
"cC c #4a4a4a",
"cu c #484848",
"bH c #757575",
"#J c #242424",
"eR c #2c2c2c",
"dC c #353535",
".R c #383838",
"dO c #414141",
"dZ c #424242",
".x c #666666",
"ed c #2a2a2a",
".y c #313131",
"ea c #3f3f3f",
"e8 c #474747",
"fe c #494949",
"#2 c #494949",
"eU c #252525",
"## c #494949",
"dT c #444444",
"ae c #494949",
"dk c #333333",
"eb c #3e3e3e",
".z c #323232",
"dL c #1f1f1f",
".r c #363636",
"dh c #484848",
"ey c #373737",
"gB c #4a4a4a",
"#D c #242424",
"cb c #353535",
"dY c #232323",
"eA c #3a3a3a",
"aj c #292929",
"ec c #3a3a3a",
"dI c #202020",
"gE c #404040",
"d# c #4c4c4c",
"#W c #2e2e2e",
"bx c #242424",
"#3 c #7a7a7a",
"#r c #252525",
"dg c #444444",
"dS c #3d3d3d",
"a6 c #212121",
"dF c #a5a5a5",
"bK c #5c5c5c",
"dz c #171717",
"dR c #2c2c2c",
"dG c #3a3a3a",
"a3 c #4b4b4b",
"du c #8e8e8e",
".u c #151515",
"c1 c #171717",
".O c #181818",
"da c #191919",
"#V c #1a1a1a",
"c2 c #1b1b1b",
"aN c #1c1c1c",
"#K c #1d1d1d",
".9 c #1e1e1e",
".Z c #1f1f1f",
"cR c #202020",
"a7 c #212121",
"cZ c #222222",
"cJ c #232323",
"cQ c #242424",
"by c #252525",
".P c #262626",
"co c #272727",
"cx c #282828",
".H c #292929",
"cp c #2a2a2a",
"cD c #2b2b2b",
"#5 c #2c2c2c",
"aO c #2d2d2d",
"cK c #2e2e2e",
"b3 c #2f2f2f",
"dv c #303030",
"cS c #313131",
"ez c #323232",
".v c #333333",
"#s c #343434",
".N c #353535",
"cw c #363636",
".Q c #373737",
"c0 c #383838",
"#4 c #393939",
"bL c #3a3a3a",
"#. c #3d3d3d",
"cP c #3e3e3e",
"bk c #3f3f3f",
"#i c #404040",
".7 c #424242",
"#C c #434343",
"b9 c #444444",
"#f c #454545",
"aV c #464646",
"a. c #474747",
".L c #484848",
"#O c #494949",
"#v c #4a4a4a",
".I c #4b4b4b",
".0 c #4c4c4c",
".2 c #4d4d4d",
".w c #4e4e4e",
"#l c #4f4f4f",
".M c #505050",
".J c #515151",
".1 c #525252",
"#g c #535353",
".8 c #545454",
"bO c #555555",
"aQ c #565656",
"aG c #575757",
"aA c #585858",
".5 c #595959",
"ca c #5a5a5a",
"aD c #5b5b5b",
"ba c #5c5c5c",
".s c #5d5d5d",
"cn c #5e5e5e",
"bE c #5f5f5f",
"#A c #606060",
"aY c #616161",
"#n c #626262",
"c# c #636363",
"bD c #646464",
"bq c #656565",
"#x c #666666",
"#B c #676767",
"bs c #686868",
"bp c #696969",
"bc c #6a6a6a",
"bz c #6b6b6b",
".3 c #6c6c6c",
".6 c #6d6d6d",
"#U c #6e6e6e",
"#t c #6f6f6f",
".t c #707070",
"#m c #717171",
"bQ c #727272",
"bP c #737373",
"#u c #747474",
"bt c #757575",
"#S c #767676",
"a9 c #777777",
"bX c #787878",
"bG c #7a7a7a",
"#T c #7b7b7b",
"#k c #7c7c7c",
"bA c #7d7d7d",
"bN c #7e7e7e",
"aT c #7f7f7f",
".4 c #808080",
"#h c #818181",
"cY c #828282",
"bl c #838383",
"#7 c #848484",
"bC c #858585",
"c. c #868686",
"b2 c #888888",
"#z c #898989",
"#L c #8a8a8a",
"#y c #8b8b8b",
"ab c #8d8d8d",
"#6 c #8f8f8f",
"aW c #909090",
"#j c #919191",
"bd c #929292",
"#N c #939393",
".K c #949494",
"aR c #969696",
"ad c #999999",
"ax c #9a9a9a",
"cv c #9b9b9b",
"#Q c #9e9e9e",
"a8 c #a0a0a0",
"ay c #a2a2a2",
"ar c #a3a3a3",
"aw c #a4a4a4",
"ak c #a5a5a5",
"al c #a6a6a6",
"aB c #a9a9a9",
"b# c #adadad",
"aJ c #b0b0b0",
"#w c #b2b2b2",
"ac c #b4b4b4",
"#R c #b5b5b5",
"aE c #b6b6b6",
"bM c #b8b8b8",
"bW c #b9b9b9",
"#P c #bababa",
"a1 c #bcbcbc",
"aH c #bebebe",
"#9 c #c0c0c0",
"an c #c4c4c4",
"a# c #c5c5c5",
"be c #c6c6c6",
"aa c #c7c7c7",
"am c #c8c8c8",
"#M c #cccccc",
"#8 c #cdcdcd",
"aq c #cecece",
"bB c #d0d0d0",
"a0 c #d1d1d1",
"br c #d2d2d2",
"aZ c #d3d3d3",
"aI c #d6d6d6",
"bo c #dbdbdb",
"bF c #dddddd",
"ap c #dedede",
"bm c #e0e0e0",
"ao c #e1e1e1",
"bn c #e2e2e2",
"a2 c #e3e3e3",
"bV c #ebebeb",
"bb c #ececec",
"aF c #eeeeee",
"aP c #f2f2f2",
"az c #f3f3f3",
"aC c #f5f5f5",
"aX c #f7f7f7",
"aU c #fafafa",
"b. c #fefefe",
"aS c #ffffff",
"QtQtQtQtQtQtQtQtQtQtQtQtQtQtQtQtQtQtQtQtQtQtQtQtQtQtQtQtQtQtQtQtQtQtQtQtQtQtQtQtQtQtQtQtQtQtQtQtQtQtQtQtQtQtQtQtQtQt.#",
".a.a.a.a.a.a.a.a.a.a.a.a.a.a.a.a.a.a.a.a.a.a.a.a.a.a.a.a.a.a.a.a.a.a.a.a.a.a.a.a.a.a.a.a.a.a.a.a.a.a.a.a.a.a.a.a.a.a.b",
".a.a.a.a.a.a.a.a.a.a.a.a.a.a.a.a.a.a.a.a.a.a.a.a.a.a.a.a.a.a.a.a.a.a.a.a.a.a.a.a.a.a.a.a.a.a.a.a.a.a.a.a.a.a.a.a.a.a.c",
".a.a.a.a.a.a.a.a.a.a.a.a.a.a.a.a.a.a.a.a.a.a.a.a.a.a.a.a.a.a.a.a.a.a.a.a.a.a.a.a.a.a.a.a.a.a.a.a.a.a.a.a.a.a.a.a.a.a.c",
".a.a.a.a.a.a.a.a.a.a.a.a.a.a.a.a.a.a.a.a.a.a.a.a.a.a.a.a.a.a.a.a.a.a.a.a.a.a.a.a.a.a.a.a.a.a.a.a.a.a.a.a.a.a.a.a.a.a.c",
".a.a.a.a.a.a.a.a.a.a.a.a.a.a.a.a.a.a.a.a.a.a.a.a.a.a.a.a.a.a.a.a.a.a.a.a.a.a.a.a.a.a.a.a.a.a.a.a.a.a.a.a.a.a.a.a.a.a.c",
".a.a.a.a.a.a.a.a.a.a.a.a.a.a.a.a.a.a.a.a.a.a.a.a.a.a.a.a.a.a.a.a.a.a.a.a.a.a.a.a.a.a.a.a.a.a.a.a.a.a.a.a.a.a.a.a.a.a.c",
".a.a.a.a.a.a.a.a.a.a.a.a.a.a.a.a.a.a.a.a.a.a.a.a.a.a.d.a.a.e.f.g.h.i.j.k.l.m.n.a.a.o.a.a.a.a.a.a.a.a.a.a.a.a.a.a.a.a.c",
".a.a.a.a.a.a.a.a.a.a.a.a.a.a.a.a.a.a.a.a.a.a.a.a.a.a.a.p.q.r.s.t.u.v.w.x.y.z.A.B.C.D.a.a.a.a.a.a.a.a.a.a.a.a.a.a.a.a.c",
".a.a.a.a.a.a.a.a.a.a.a.a.a.a.a.a.a.a.a.a.a.a.E.a.a.a.F.G.H.I.J.K.L.M.J.t.N.O.P.Q.R.S.T.U.a.a.E.E.a.a.a.a.a.a.a.a.a.a.c",
".a.a.a.a.a.a.a.a.a.a.a.a.a.a.a.a.a.a.a.a.a.a.a.V.W.X.Y.Z.0.1.2.3.4.I.M.5.6.7.1.8.1.9#.###a#b.a#c.a.a.a.a.a.a.a.a.a.a.c",
".a.a.a.a.a.a.a.a.a.a.a.a.a.a.a.a.a.a.a.a.a.a#d#e#f#g#h#i.1.J.J.1#j.w.1.w#k#g.J#l#m#l#g#l#n#o#p.a.a.a.a.a.a.a.a.a.a.a.c",
".a.a.a.a.a.a.a.a.a.a.a.a.a.a.a.a.a.E.a.a.a#q#r#s.8.w#t#u#v.J.J.0#w#x#l.0#y.6.2.0#z#A#l#l#B#C#D#E.a#F#G.a.a.a.a.a.a.a.c",
".a.a.a.a.a.a.a.a.a.a.a.a.a.a.a.a.a.a.a#H#I#J#K.0.1.J#l#L.1.J.J.0#M#N#O.I#P#Q.L.I#R#S.2.0#T#U#V#W#X.a#Y.a.a.a.a.a.a.a.c",
".a.a.a.a.a.a.a.a.a.a.a.a.a.a#Z.a.a#0#1#2#3#4#5#g.J.J#v#6#7.I.J.2#8#9a..0a#a##O.Iaaab#v#vacad.L.2aeaf.aag.a.a.a.a.a.a.c",
".a.a.a.a.a.a.a.a.a.a.a.a.a.a.oahaiaj#s.w#Bak.L.J.J.J#valama..J.0anao.w.0anap.w.I#Mal.L.2aqar#O.1#lasat.a.a.a.a.a.a.a.c",
".a.a.a.a.a.a.a.a.a.a.a.a.a.aauav.9.v.8.1.Lawax#f.1.J#vayazaA#l#vaBaCaD.LaEaFaG#vamaHa.#laIaJ.L#l#naEaKah.a.a.a.a.a.a.c",
".a.a.a.a.a.a.a.a.a.a.aagaL.oaMaNaO.1.1.J.IawaPaQ.w.J#vaRaSaT#v.0.4aU.3aVaWaXaYa.aEaZ#v.wa0a1.L.I#Na2a3a4.a#c.a.a.a.a.c",
".a.a.a.a.a.a.a.a.a.a.a.E.oa5a6a7.2.1.J.J.IaxaSa8a..J.0a9b.b#a..Mbabb.4#ObaaZbca.bda2#l#va1be.L#valao#nbfbgbh.a.a.a.a.c",
".a.a.a.a.a.a.a.a.a.abi.a.abj.Obk.8.J.J.J.0blb.bm#l.J#laQbnbo.0.J.0ar#6#v.2bpbq.0aYa0.5#O#Lbr#v#vaxaobsbtbu.abv.a.a.a.c",
".a.a.a.a.a.a.a.a.a.abh.abwbxby.J.J.J.J.J#l#nbbaUbz.2.J.0bAbBba#l.MbabC.I.M.sbD.w.0#TbE.waGaw.M.0#TbFbzbGbHbIbv.a.a.a.c",
".a.a.a.a.a.a.a.a.a.a.abJbKbL#4#g.J.J.J.J.J.0bMaS#j#O.J.J.LbNbs.w.JaAbC.I.MaD#B.w.w.3aY#l.w#B#g#lbO#wbP#kbQbR.a.a.a.a.c",
".a.a.abSahah.E.a.a.abTbU.3aDaV.1.J.J.J.J.J.2bsbVbWa..1.J.2bXbp.2.J.8#h.0.J.5bp.2.w.3bq.w#l#x.8.M.2bQbG#k#gbY.a.a.a.a.c",
".a.a.abZaub0.o.a.a.ab1aVbEada..1.J.J.J.J.J.J.2bzay.w.J.J.w#mbD.w.J#gbN.0.JaQbz.2.wbz#B.w#lbDaQ.M.w#Ub2bqb3b4b5.a.a.a.c",
".a.a.a.ab6b7.o.a.a.ab8#l.2.KbGb9#g.1.J.J.J.J.J#Oc.aQ.J.J.w#t#A#l.J.1.4.2.J.8#U.0.wbzbp.w#lc#ca.M.wbt#Lbkbycbcc.a.a.a.c",
".a.a.acdcecf.a.a.a.acg.1.M.1akbPbk#O.1.J.J.J.J.2bNba.M.J.w#mbE#l.J.J#h.w.1.1.t.2#lbcbp.w#laYba#l.wbtca.H.H.Hch.a.a.a.c",
".a.a.acicjck.a.a.aclcm.1.J#l.8bdax.6.I.1.J.J.J.2#SaY#l.J.2#u#A#l.J.Mbl.w.J.J.t.2#lbzbp.w#l#Acn#l.wbP.Qcocpbycq.a.a.a.c",
".a.a.acrcs.a.a.a.actcu#g.J.J.M.0#xcvba#l.J.J.J.w.t#x.w.J.2btaY#l.J#l#7.M.J.J.t.w#lbpbs.w.MbaaG#l.wbQcwcxcx.Hcy.a.a.a.c",
".a.a.aczcA.a.a.a.acBcC#g.J.J.J.J.2#AbP.0.J.J.J.wbz.3.2.J.2#SaY#l.J.w#7.1.J.M#t.w#l#B#B.w#gaV#4.1.1#lcp.P.HcDcE.a.a.a.c",
".a.a.acFcG.a.o.a.acHcI.1.J.J.J.J.JaQ.4.I.1.J.J#l#xbP.0.J.JaD.I.J.J.1aA.L.1.MbQ.w.MaYca.J.0cJ#s.8.IcpcKa7.HaOcL.a.a.a.c",
".a.a.acMcNah.o.a.E.acO.8.J.J.J.J.J.JbC.w.1.J.J#l#A#T.I.1.2aOcP#g.1aVcp#f.1.1.5.0#gbk#..Mcx.Ocw.JcxcQ.PcRcocScT.a.a.a.c",
".a.a.acUcVcW.a.a.a.acXbE.M.J.J.J.J#lb2.1.J.J.J.McacY.2.w.Ha7#ibO.wcQ.PaVaQ.7#5.Ma.cZc0aOc1c2b3cpc1.PaNcJcZc3c4.a.a.a.c",
".a.a.ac5c6c7c8.ac9d.d#bX#l.J.J.J.J.M#k.w.1.J.J.J.8c.cPcQc1a7bk.Lcoc1.H#Cbk#KaO.LcZcRcZ.Oda.9.Z.O.ObyaN.Hdbdc.a.a.a.a.c",
".a.a.a.add#ldedfdgdhdidj#B#l.J.J.J#g.LaV.1.J.J.J.1.Mdadadaa7cDaN.OdacpcRda#Vcpa7c1cZ.ZdadacR#K.O#Kdkdldmdn.a.a.a.a.a.c",
".a.a.aagc5dodpdqdrds.adtdu.1.J.J#ga.cK.L.1.J.1.1cSbyaN#V#V#Kcoc1#VdacxaNda#KcZ.OdacJ.Z.Odaa7cDdvcodw.a.a.a.d.a.a.a.a.c",
".a.a.a.a.a.a.a.a.a.a.adxdy#k.2.8.IcQaO.0.1.1.Jdvc1cQa7.O#Vdacxa7#Vc1.P#K.O#KcJda.OcJcD.Hb3#sdzdAdBdCdD.a.a.E.a.a.a.a.c",
".a.a.a.a.a.a.a.a.a.a.a.adEdFcabkcZda#s.1.8.2cD.O#V#KaOcJa7#KcQb3cwaOcScxcZ.PdGcpcQcSdHdIdJdKdLdMdNdOdP.a.a.a.a.a.a.a.c",
".a.a.a.a.a.a.a.a.a.a.a.a.adQ#C.Oc1cJcSb9#4a7.O#Vdac1#5.9dRdSdTdUdVdWdXdYdZd0d1d2d3d4.nd5d6.ad7d8.ad9e..a.a.a.a.a.a.a.c",
".a.a.a.a.a.a.a.a.a.a.a.ae#eaebcw.vcwcQaNdada#VaN.9byecedeeefeg.D.aehc8eiej.n.a.a.a.a.aekel.aemen.aeoep.a.a.a.a.a.a.a.c",
".a.a.a.a.a.a.a.a.a.a.aeqereseteuevewexeycx#sezcpeAeBeCeDeE.a.aah.a.a.aeFeG.aeHbhag.a.aeIeJ.aeKeLeMeNeO.o.a.a.a.a.a.a.c",
".a.a.a.a.a.a.a.a.a.a.DePeQ.a.a.a.a.aau.BeReSeTeUeV#b.DeWeX.a.a.a.a.a.aeYeZ.a.a.a.E.a.ae0e1.ae2e3e4e5eme6.a.a.a.a.a.a.c",
".a.a.a.a.a.a.a.a.a.ae7e8e9.a.a.a.a.af.f#fa.afbfc.a.afdfeff.a.a.a.a.a.afgfh.a.a.a.a.a.afifjfk.aflfm.afnfo.a.a.a.a.a.a.c",
".a.a.a.a.a.a.a.a.a.afpfq.abS.a.a.afrfsftfufvfwfx.ac5fyfz.a.a.a.a.a.a.afAfB.a.a.a.a.a.afCfDfE.afFfG.aehfH.a.a.a.a.a.a.c",
".a.a.a.a.a.a.a.a.afIfJfK.a.a.a.afLfMfNfO.afPfQfR.afSfTfU.a.a.a.a.a.afVfWfX.a.a.a.a.a.aahfYfZ.af0f1f2.a.a.a.a.a.a.a.a.c",
".a.a.a.a.a.a.a.a.af3f4c5f2.a.a.af5f6.a.a.af7f8.af9g.g#.a.a.a.a.a.a.agagbgc.a.a.a.a.a.a.o.Tgd.a.aahbi.a.a.a.a.a.a.a.a.c",
".a.a.a.a.a.a.a.a.agegf.af2.a.a.a.a.a.a.aggghgi.agjgk.a.o.a.a.a.a.a.aglgm.a.a.a.a.a.a.a.dgngo.a.a.a.a.a.a.a.a.a.a.a.a.c",
".a.a.a.a.a.a.a.a.agpgqah.a.a.a.a.a.a.a.agrgs.a.aahc5bi.a.a.a.a.a.a.agtgu.a.a.a.a.a.a.aaL.a.a.a.a.a.a.a.a.a.a.a.a.a.a.c",
".a.a.a.a.a.a.a.a.agvgwgx.abi.a.a.a.a.a.aah.a.a.a.E.d.E.a.a.a.a.a.a.a.a.a.a.a.a.a.a.a.a.E.E.a.a.a.a.a.a.a.a.a.a.a.a.a.c",
".a.a.a.a.a.a.a.a.a.agygz.ac5.a.a.a.a.a.a.a.a.a.a.a.a.a.a.a.a.a.a.a.a.a.a.a.a.a.a.a.a.a.a.a.a.a.a.a.a.a.a.a.a.a.a.a.a.c",
".a.a.a.a.a.a.a.a.a.ogAgBgC.a.a.a.a.a.a.a.a.a.a.a.a.a.a.a.a.a.a.a.a.a.a.a.a.a.a.a.a.a.a.a.a.a.a.a.a.a.a.a.a.a.a.a.a.a.c",
".a.a.a.a.a.a.a.a.a.o.agDgEgFgG.a.a.a.a.a.a.a.a.a.a.a.a.a.a.a.a.a.a.a.a.a.a.a.a.a.a.a.a.a.a.a.a.a.a.a.a.a.a.a.a.a.a.a.c",
".a.a.a.a.a.a.a.a.a.ac5.ogHgIgJ.a.a.a.a.a.a.a.a.a.a.a.a.a.a.a.a.a.a.a.a.a.a.a.a.a.a.a.a.a.a.a.a.a.a.a.a.a.a.a.a.a.a.a.c",
".a.a.a.a.a.a.a.a.a.a#Y.o.a.a.a.a.a.a.a.a.a.a.a.a.a.a.a.a.a.a.a.a.a.a.a.a.a.a.a.a.a.a.a.a.a.a.a.a.a.a.a.a.a.a.a.a.a.a.c",
".a.a.a.a.a.a.a.a.a.a.a.a.a.a.a.a.a.a.a.a.a.a.a.a.a.a.a.a.a.a.a.a.a.a.a.a.a.a.a.a.a.a.a.a.a.a.a.a.a.a.a.a.a.a.a.a.a.a.c",
".a.a.a.a.a.a.a.a.a.a.a.a.a.a.a.a.a.a.a.a.a.a.a.a.a.a.a.a.a.a.a.a.a.a.a.a.a.a.a.a.a.a.a.a.a.a.a.a.a.a.a.a.a.a.a.a.a.a.c",
".a.a.a.a.a.a.a.a.a.a.a.a.a.a.a.a.a.a.a.a.a.a.a.a.a.a.a.a.a.a.a.a.a.a.a.a.a.a.a.a.a.a.a.a.a.a.a.a.a.a.a.a.a.a.a.a.a.a.c",
".a.a.a.a.a.a.a.a.a.a.a.a.a.a.a.a.a.a.a.a.a.a.a.a.a.a.a.a.a.a.a.a.a.a.a.a.a.a.a.a.a.a.a.a.a.a.a.a.a.a.a.a.a.a.a.a.a.a.c",
".a.a.a.a.a.a.a.a.a.a.a.a.a.a.a.a.a.a.a.a.a.a.a.a.a.a.a.a.a.a.a.a.a.a.a.a.a.a.a.a.a.a.a.a.a.a.a.a.a.a.a.a.a.a.a.a.a.agK",
".c.c.c.c.c.c.c.c.c.c.c.c.c.c.c.c.c.c.c.c.c.c.c.c.c.c.c.c.c.c.c.c.c.c.c.c.c.c.c.c.c.c.c.c.c.c.c.c.c.c.c.c.c.c.c.c.c.cgL"};
