/* XPM */
static char *dummy[]={
"59 59 744 2",
"Qt c None",
"jF c None",
"#w c None",
"fE c None",
"c1 c None",
"a8 c None",
"ep c None",
"hm c #dddddd",
".K c #e1e1e1",
".m c #e6e6e6",
"e6 c #eaeaea",
".l c #ebebeb",
".# c #ededed",
"jn c #eeeeee",
"g4 c #dedede",
"fD c #dfdfdf",
"#x c #e0e0e0",
"c2 c #e2e2e2",
"hL c #e3e3e3",
"aR c #e5e5e5",
".d c #e7e7e7",
"jd c #e8e8e8",
"hT c #eaeaea",
"iT c #ebebeb",
"in c #dfdfdf",
"jt c #e0e0e0",
".e c #e1e1e1",
"bq c #e2e2e2",
"h2 c #e3e3e3",
"hC c #e6e6e6",
"jA c #e0e0e0",
"hS c #e7e7e7",
"bp c #dfdfdf",
"cG c #e0e0e0",
"j# c #e5e5e5",
"h9 c #dfdfdf",
"er c #dcdcdc",
"cp c #dfdede",
"iS c #dfdfdf",
"f5 c #ffffff",
"## c #dfdfdf",
"fF c #e1e1e1",
".t c #dddddd",
"ar c #dedede",
".s c #dfdfdf",
"bD c #ffffff",
"gi c #dedede",
"f0 c #ffffff",
".f c #dcdcdc",
"dn c #dddddd",
"#0 c #dedede",
"j. c #dfdfdf",
"je c #e4e4e4",
"h# c #ffffff",
"bI c #dddddd",
"e5 c #dedede",
"ix c #dfdfdf",
"hK c #dedede",
"gU c #ffffff",
"eq c #dedede",
"fe c #ffffff",
"bV c #dddddd",
"iF c #dfdfdf",
"cc c #dddcdc",
"i. c #dfdfdf",
"jL c #e7e7e7",
"#f c #ffffff",
"bJ c #dddddd",
"h3 c #dedede",
"dP c #e1e1e1",
"jJ c #e5e5e5",
"gt c #ffffff",
"dO c #dddddd",
".k c #dfdfdf",
"#3 c #ffffff",
"io c #dcdcdc",
".g c #dddddd",
"g3 c #dedede",
"bk c #ffffff",
"es c #dbdbdb",
"iy c #dddddd",
"#v c #ffffff",
"hz c #dbdbdb",
"i9 c #dcdcdc",
".L c #dddddd",
"gY c #e5e5e5",
"cZ c #ffffff",
"gh c #e2e2e2",
"hf c #e9e9e9",
".U c #ffffff",
"c4 c #fdfdfc",
"il c #ffffff",
"f6 c #cdcdcd",
"jI c #e0e0e0",
".a c #e2e2e2",
"gc c #f5f5f5",
"e3 c #f7f7f7",
"#U c #ffffff",
".h c #dddddd",
"#. c #dedede",
"bi c #e3e3e3",
"eu c #fcfcfc",
"a6 c #ffffff",
"aP c #ffffff",
"gw c #c7c7c7",
"#r c #d8d8d8",
"bW c #dddddd",
"g5 c #dedede",
"iz c #e8e8e8",
"#e c #ffffff",
"hQ c #d6d6d6",
"b3 c #dddddd",
".j c #dedede",
".c c #e4e4e4",
"gH c #fafafa",
"fZ c #ffffff",
"js c #cacaca",
"bC c #cfcfcf",
"iK c #dadada",
"aq c #dddddd",
"jc c #e0e0e0",
"jK c #e6e6e6",
"jE c #f6f6f6",
"aS c #fbfbfb",
"at c #ffffff",
"a1 c #c5c5c5",
"gF c #d1d1d1",
"fg c #d2cece",
".M c #dddddd",
"iE c #f4f4f4",
"bj c #f5f5f5",
"hN c #f7f7f7",
".I c #f9f9f9",
"gQ c #ffffff",
"jy c #b0b0b0",
"gL c #b3b3b3",
"gC c #bfbfbf",
".8 c #c6c6c6",
"i1 c #d8d8d8",
"iU c #dbdbdb",
"#Y c #dddddd",
".i c #dedede",
"iR c #dfdfdf",
"ca c #eaeaea",
"aI c #f8f8f8",
"#d c #ffffff",
"hW c #c2c2c2",
"b# c #c9c9c9",
"au c #cdcdcd",
"hr c #dddddd",
"a9 c #dedede",
"ja c #dfdfdf",
".V c #e7e7e7",
"#R c #ffffff",
"aL c #c8c8c8",
"g2 c #dedede",
"jm c #e0e0e0",
"ib c #e1e1e1",
"fQ c #f3f3f3",
"ff c #ffffff",
"iv c #bbbbbb",
"#a c #dddddd",
".b c #e3e3e3",
"gx c #ffffff",
"iq c #bababa",
"ic c #dfdfdf",
"h0 c #f5f5f5",
".A c #ffffff",
"gk c #b8b8b8",
"gN c #bababa",
"dl c #bfbfbf",
"dS c #c4c7c7",
".N c #dddddd",
".u c #dedede",
".T c #ffffff",
"ji c #a0a0a0",
"jk c #acacac",
"#S c #dcdcdc",
".Q c #dedede",
"gZ c #f2f2f2",
"dR c #f6f6f6",
".B c #ffffff",
"hk c #9e9e9e",
"#z c #cacaca",
"a2 c #eeeeee",
"he c #f3f3f3",
"bX c #ffffff",
"jC c #a9a9a9",
"iM c #b7b7b7",
"hq c #dddddd",
".P c #dedede",
"jf c #dfdfdf",
"gE c #ebebeb",
"hA c #efefef",
"dp c #eff0f0",
"#y c #fafafa",
"ap c #fbfbfb",
".p c #ffffff",
"hZ c #9f9f9f",
"iD c #a5a5a5",
"ev c #a9a9a9",
"bn c #d0d0d0",
".O c #dedede",
"e7 c #e1e1e1",
".2 c #eeeeee",
".z c #ffffff",
"f9 c #8e8f8e",
"gM c #ababab",
"iH c #b9b9b9",
".F c #c2c2c2",
"ce c #c8c3c5",
".R c #dbdbdb",
"eo c #dcdcdc",
"hs c #dddddd",
"g1 c #dedede",
"jh c #ececec",
"gd c #efefef",
"fC c #f7f7f7",
"ak c #fdfdfd",
"ia c #ffffff",
"aH c #a9a9a9",
"jb c #dedede",
"iw c #dfdfdf",
"h8 c #efefef",
"g6 c #f2f2f2",
".4 c #fdfdfd",
"e8 c #ffffff",
"hO c #9f9f9f",
"hd c #dbdbdb",
"do c #dcdcdc",
"iG c #e1e1e1",
"#2 c #eeeeee",
"#c c #fbfbfb",
"em c #908e8f",
".1 c #9e9e9e",
"#T c #dedede",
"hM c #dfdfdf",
"hn c #e1e1e1",
"b. c #ececec",
"gI c #f3f3f3",
".y c #fdfdfd",
"jG c #ffffff",
".n c #e1e1e1",
"ho c #ececec",
"i3 c #ededed",
"hV c #f4f4f4",
"jl c #ffffff",
"fa c #aeaeae",
".H c #bcbcbc",
"aQ c #dedede",
"gT c #eaeaea",
".q c #efefef",
"hp c #f1f1f1",
"bU c #f9f9f9",
"gP c #9b9b9b",
"bK c #b5b5b5",
"cI c #bdb8b7",
"cF c #dddddd",
"#p c #dedede",
"i4 c #e9e9e9",
"id c #eaeaea",
"gy c #f5f5f5",
"aT c #afafaf",
".3 c #dedede",
".D c #e1e1e1",
".9 c #ebebeb",
".o c #ececec",
"en c #eeeeee",
"fY c #868586",
"iW c #919191",
"#q c #e8e8e8",
".C c #efefef",
"bH c #f2f2f2",
"f# c #f6f6f6",
"g7 c #8b8b8b",
"hJ c #dddddd",
"hB c #dedede",
"i5 c #e2e2e2",
"hI c #e4e4e4",
".E c #eaeaea",
"cH c #eaecec",
".x c #eeeeee",
"e9 c #f0f0f0",
"hc c #f1f1f1",
".W c #9d9d9d",
"fR c #9fa0a0",
"cr c #bab0b3",
"h1 c #dddddd",
"co c #dfdfdf",
"i2 c #e3e3e3",
"gR c #e5e5e5",
"hb c #e9e9e9",
"dm c #eaeaea",
"gf c #ebebeb",
"cd c #eceded",
"b2 c #ededed",
".J c #dedede",
".v c #dfdfdf",
"jB c #e5e5e5",
"jz c #e6e6e6",
"fG c #e7e7e7",
"gj c #e9e9e9",
"f. c #eeeeee",
"b1 c #acacac",
"iQ c #dfdfdf",
".r c #e0e0e0",
"c3 c #e1e1e1",
"fO c #e2e2e2",
"gg c #e3e3e3",
"iL c #e4e4e4",
"bo c #e7e7e7",
"#b c #e8e8e8",
"c0 c #dedede",
"#1 c #dfdfdf",
"a7 c #e1e1e1",
"hU c #e2e2e2",
"hR c #e3e3e3",
"cb c #e4e4e4",
"e4 c #e5e5e5",
"#Z c #e6e6e6",
"hl c #e9e9e9",
"cq c #e9ebeb",
"e2 c #a5a5a5",
"ht c #dddddd",
"i# c #dedede",
"br c #e0e0e0",
"jH c #e6e6e6",
"fI c #9f9f9f",
"im c #dfdfdf",
".w c #e3e3e3",
"jo c #dddddd",
"hD c #e0e0e0",
".S c #e1e1e1",
"hv c #e3e3e3",
"aK c #e8e8e8",
"dq c #a39a9a",
"aj c #dedede",
"as c #e0e0e0",
"iV c #e8e8e8",
"fJ c #909090",
"ie c #959595",
"jg c #dbdbdb",
"ju c #e3e3e3",
"ip c #e6e6e6",
"hu c #dedede",
"gG c #818181",
"bG c #9b9b9b",
"g0 c #dcdcdc",
"h4 c #e0e0e0",
"iP c #e4e4e4",
"dQ c #dddddd",
"et c #dfdfdf",
"aJ c #dedede",
"ik c #6f6f6f",
"#4 c #9c9c9c",
"h5 c #8e8e8e",
"gD c #dbdbdb",
"i8 c #dbdbdb",
"al c #6c6c6c",
"fK c #757575",
"ge c #dcdcdc",
"hE c #747474",
"gs c #dddddd",
"bT c #909090",
"gz c #d9d9d9",
"#g c #787878",
"iC c #808080",
".X c #828282",
"jD c #606060",
"ft c #7b7b7a",
"#A c #989898",
"jq c #545454",
"gV c #828282",
"gS c #dedede",
"gr c #636363",
"ao c #868686",
".5 c #929292",
"ez c #7c6e6d",
"fH c #888888",
"fP c #d7d7d7",
"fv c #615c5c",
"ha c #dcdcdc",
"hP c #5d5d5d",
"hX c #6f6f6f",
"fB c #8e8e8e",
"dN c #696969",
"jr c #585858",
"#H c #7b7b7b",
"ey c #585a5a",
"fd c #5d5d5d",
"a3 c #d4d4d4",
"fL c #5c5c5c",
".Y c #747474",
"gq c #5b5b5b",
".0 c #6a6a6a",
"b4 c #747474",
"bY c #7d7d7d",
"if c #6a6a6a",
"i0 c #6b6b6b",
"e1 c #707170",
"hg c #505050",
"fm c #605857",
"#Q c #757575",
"i7 c #4b4b4b",
"gp c #5b5b5b",
"ir c #5f5f5f",
"fX c #484848",
"#B c #898989",
".G c #959595",
"f4 c #454545",
"h. c #4f4f4f",
".Z c #6c6c6c",
"hH c #606060",
"gO c #6c6c6c",
"fs c #5b5453",
"iO c #6b6b6b",
"#G c #787878",
"ai c #656565",
"fn c #504947",
"h7 c #6b6b6b",
"fh c #6d6566",
"g. c #484949",
"bQ c #515151",
"gK c #4e4e4e",
"hh c #535353",
"jv c #434343",
"#V c #474747",
"go c #565656",
"#u c #747474",
"ig c #555555",
"cE c #4c4c4c",
"#F c #6f6f6f",
"#C c #7d7d7d",
"fN c #444444",
"#I c #5b5b5b",
"cY c #4b4b4b",
"is c #505050",
"iN c #5a5a5a",
"fU c #3b3b3b",
"aO c #656565",
"#E c #747474",
"ih c #4e4e4e",
"#D c #7a7a7a",
"hw c #525252",
"bs c #757575",
"av c #7b7b7b",
"hi c #484848",
"#o c #616161",
"fW c #373737",
"gA c #545454",
"g# c #343434",
"iu c #5e5e5e",
"ij c #3f3f3f",
"#5 c #797979",
"gn c #4d4d4d",
"ew c #484948",
"ii c #4a4a4a",
"bB c #515151",
"iA c #5c5c5c",
"i6 c #393939",
"jj c #404040",
"#h c #555555",
"eA c #5b4848",
"gv c #373737",
"gJ c #404040",
"gX c #414141",
"iX c #454545",
"bl c #343434",
"fw c #413e3e",
"iY c #3c3c3c",
"fV c #303030",
"f8 c #3c3d3d",
"fM c #444444",
"jp c #3c3c3c",
"fl c #3b3635",
"cn c #444444",
"gb c #494949",
"bh c #555555",
"hy c #3c3c3c",
"f7 c #3f3f3e",
"gu c #555555",
"f1 c #5f5f5f",
"bE c #313131",
"el c #3d3a3a",
"c5 c #725e5e",
"gB c #2d2d2d",
"a4 c #2e2e2e",
"a0 c #505050",
"a5 c #515151",
"iJ c #585858",
"fT c #2a292a",
"ga c #363636",
"fu c #3d3e3e",
"aU c #6e6e6e",
"#s c #4b4b4b",
"fy c #282a28",
"hj c #343434",
"fx c #3a3938",
"ba c #6d6d6d",
"bP c #424242",
".7 c #727272",
"fo c #474140",
"hF c #363636",
"c# c #3f3f3f",
"#X c #575757",
"#i c #4b4b4b",
"dk c #3d3d3d",
"fS c #3f4040",
"jx c #2e2e2e",
"gm c #4b4b4b",
"iB c #595959",
"f3 c #202020",
"aG c #434343",
"aM c #272727",
"hY c #2a2a2a",
"eB c #533c3d",
"fA c #636363",
"gl c #5b5b5b",
"#6 c #676767",
"bm c #494949",
"eU c #4b3939",
"jw c #272727",
"dT c #322f2f",
"dr c #5c4646",
"g8 c #383838",
"fb c #4a4a4a",
"bR c #232323",
"cf c #453c3d",
"e0 c #5e3f4a",
"fk c #222121",
"bL c #545454",
"cJ c #685152",
"hx c #373737",
"b0 c #3f3f3f",
"cs c #6a5051",
"ex c #252626",
"eV c #3a3131",
"#j c #444444",
"iZ c #2a2a2a",
"aw c #666666",
"g9 c #1e1e1e",
"bF c #414141",
"iI c #393939",
"fr c #222322",
"hG c #2a2a2a",
"#J c #3e3e3e",
"ek c #482e33",
"eC c #54393a",
"am c #242424",
"fi c #312d2d",
"eY c #503438",
"f2 c #1b1b1b",
"dU c #3d2e2e",
"b5 c #303131",
"it c #343434",
"gW c #383838",
"h6 c #393939",
"bS c #3c3c3c",
"an c #404040",
"b8 c #131414",
"cD c #141414",
"dF c #141415",
"cx c #141515",
"bZ c #151515",
"dE c #151615",
"ck c #151616",
"c. c #161616",
"ci c #161717",
"ch c #161718",
"dK c #171616",
"bN c #171717",
"cj c #171818",
"fz c #171918",
"aZ c #181818",
"dD c #181819",
"dg c #181919",
"aY c #191919",
"b6 c #191a1a",
"b7 c #1a1a19",
"aE c #1a1a1a",
"dL c #1a1b1a",
"dG c #1a1b1b",
"ag c #1b1b1b",
"ea c #1c1918",
"cy c #1c1a1a",
"cg c #1c1b1b",
"af c #1c1c1c",
"fj c #1c1d1c",
"ec c #1d1b1c",
"aD c #1d1d1d",
"eJ c #1d1e1e",
"cl c #1e1919",
"e# c #1e191a",
"ed c #1e1a19",
"cw c #1e1a1b",
"eb c #1e1b1b",
"aF c #1e1e1e",
"cX c #1e1e1f",
"dM c #1e2020",
"ae c #1f1f1f",
"dC c #201d1d",
"df c #20201f",
"aC c #202020",
"aB c #212121",
"e. c #221c1c",
"aA c #222222",
"eI c #222322",
"ah c #232323",
"eW c #242220",
"by c #242424",
"eH c #242525",
"ef c #252120",
"az c #252525",
"aX c #262626",
"#N c #272727",
"eG c #272828",
"d9 c #282121",
"ad c #282828",
"cv c #292222",
"#M c #292929",
"eg c #2a2725",
"#O c #2a2a2a",
"ee c #2b2222",
"bf c #2b2b2b",
"ay c #2c2c2c",
"b9 c #2c2d2d",
"#L c #2d2d2d",
"bc c #2e2e2e",
"cC c #2e2f2f",
"bx c #2f2f2f",
"eX c #302524",
"bz c #303030",
"eh c #312523",
"eK c #312625",
"#W c #313131",
"fc c #323232",
"eS c #332b2a",
"bO c #333333",
"cz c #342626",
"#P c #343434",
"eF c #353030",
"d6 c #353130",
"aN c #353535",
"#K c #363636",
"cW c #373131",
"ac c #373737",
"d5 c #383535",
"bw c #383838",
"eR c #393838",
"aW c #393939",
"cm c #3a3434",
"d8 c #3b2b2b",
"bM c #3b3b3b",
"bA c #3d3d3d",
"eT c #3e2d2d",
"cu c #3e2e2e",
"bu c #3e3e3e",
"ax c #3f3f3f",
"d4 c #403b3b",
"eN c #412d2d",
"d7 c #413131",
"aa c #414141",
"bg c #424242",
"fq c #424343",
"#k c #434343",
"eM c #443030",
"ab c #444444",
"dB c #453232",
"a# c #454545",
"eO c #463636",
"#l c #464646",
"d3 c #473d3d",
"#m c #474747",
"eQ c #494646",
"bd c #494949",
"cQ c #4a3534",
"bv c #4a4a4a",
"eE c #4b3837",
"a. c #4b4b4b",
"cP c #4c3636",
"bt c #4c4c4c",
"eL c #4d3635",
"eP c #4d4646",
"#n c #4d4d4d",
"#9 c #4e4e4e",
"fp c #4f4f4d",
"de c #503739",
"cR c #503838",
"cB c #503c3b",
"bb c #505050",
"dV c #513837",
"ei c #523136",
"eD c #523737",
"d2 c #523f3f",
"#t c #525252",
"#8 c #535353",
"cA c #543838",
"cO c #543b3c",
"aV c #555555",
"dW c #563a39",
"ct c #573e3e",
"d1 c #593f3e",
"#7 c #595959",
"ds c #5b3e3e",
"dJ c #5b5b5b",
"cV c #5c3e3e",
"cS c #5c3e3f",
"dA c #5d3f3e",
"dX c #5d403f",
"ej c #5e343d",
"cN c #5e4243",
"dd c #60403f",
"dZ c #604141",
"dz c #61413f",
"cU c #614141",
"d0 c #614241",
"cT c #634342",
"dY c #634444",
"dt c #634646",
"be c #636363",
"dc c #664644",
"dy c #664747",
"cM c #674848",
"dx c #674949",
"dj c #676767",
"c7 c #684a4a",
"c6 c #694a4a",
"dw c #694a4b",
"db c #6a4949",
"du c #6a4d4c",
"cK c #6b4b4d",
"cL c #6c4a4c",
"da c #6c4b4b",
"dv c #6c4d4d",
"d# c #6d4c4c",
"c8 c #6d4e4e",
"d. c #6e4e4e",
"c9 c #6e4f50",
".6 c #737373",
"dH c #787979",
"eZ c #915a76",
"dh c #919191",
"di c #a8a8a8",
"dI c #dddedd",
"QtQtQtQtQtQtQtQtQtQtQtQtQtQtQtQtQtQtQtQtQtQtQtQtQtQtQtQtQtQtQtQtQtQtQtQtQtQtQtQtQtQtQtQtQtQtQtQtQtQtQtQtQtQtQtQtQtQtQt",
"QtQtQtQtQtQtQtQtQtQtQtQtQtQtQtQtQtQtQtQtQtQtQtQtQtQtQtQtQtQtQtQtQtQtQtQtQtQtQtQtQtQtQtQtQtQtQtQtQtQtQtQtQtQtQtQtQtQtQt",
"QtQtQtQtQtQtQtQtQtQtQtQtQtQtQtQtQtQtQtQtQtQtQtQtQtQtQtQtQtQtQtQtQtQtQtQtQtQtQtQtQtQtQtQtQtQtQtQtQtQtQtQtQtQtQtQtQtQtQt",
"QtQtQtQtQtQtQtQtQtQtQtQtQtQtQtQtQtQtQtQtQtQtQtQtQtQtQtQtQtQtQtQtQtQtQtQtQtQtQtQtQtQtQtQtQtQtQtQtQtQtQtQtQtQtQtQtQtQtQt",
"QtQtQtQtQtQtQtQtQtQtQtQtQtQtQtQtQtQtQtQtQtQtQtQtQtQtQtQtQtQtQtQtQtQtQtQtQtQtQtQtQtQtQtQtQtQtQtQtQtQtQtQtQtQtQtQtQtQtQt",
"QtQtQtQtQtQtQtQtQtQtQtQtQtQtQtQtQtQtQtQtQtQtQtQtQtQtQtQtQtQtQtQtQtQtQtQtQtQtQtQtQtQtQtQtQtQtQtQtQtQtQtQtQtQtQtQtQtQtQt",
"QtQtQtQtQtQtQtQtQtQtQtQtQtQtQtQtQtQtQtQtQtQtQtQtQtQtQtQtQtQtQtQtQtQtQtQtQtQtQtQtQtQtQtQtQtQtQtQtQtQtQtQtQtQtQtQtQtQtQt",
"QtQtQtQtQtQtQtQtQtQtQtQtQtQtQtQtQtQtQtQtQtQtQtQtQtQtQtQtQtQtQtQtQtQtQtQtQtQtQtQtQtQtQtQtQtQtQtQtQtQtQtQtQtQtQtQtQtQtQt",
"QtQtQtQtQtQtQtQtQtQtQtQtQtQtQtQtQtQtQtQtQtQtQtQtQtQtQtQtQtQtQtQtQtQtQtQtQtQtQtQtQtQtQtQtQtQtQtQtQtQtQtQtQtQtQtQtQtQtQt",
"QtQtQtQtQtQtQtQtQtQtQtQtQtQtQtQtQtQtQtQtQtQtQtQtQtQtQtQtQtQtQtQtQtQtQtQtQtQtQtQtQtQtQtQtQtQtQtQtQtQtQtQtQtQtQtQtQtQtQt",
"QtQtQtQtQtQtQtQtQtQtQtQtQtQtQtQtQtQtQtQtQtQtQtQtQtQtQtQtQtQtQtQtQtQtQtQtQtQtQtQtQtQtQtQtQtQtQtQtQtQtQtQtQtQtQtQtQtQtQt",
"QtQtQtQtQtQtQtQtQtQtQtQtQtQtQtQtQtQtQtQtQtQtQtQtQtQtQtQtQtQtQtQtQtQtQtQtQtQtQtQtQt.#.a.b.c.dQtQtQtQtQtQtQtQtQtQtQtQtQt",
"QtQtQtQtQtQtQtQtQtQtQtQtQtQtQtQtQtQtQtQtQtQtQtQtQtQtQtQtQtQtQtQt.e.f.g.h.i.j.k.l.m.n.o.p.q.r.sQtQtQtQtQtQtQtQtQtQtQtQt",
"QtQtQtQtQtQtQtQtQtQtQtQtQtQtQtQtQtQtQtQtQtQtQtQtQtQtQtQtQt.t.u.v.w.x.y.z.A.B.C.D.k.E.F.G.H.I.J.KQtQtQtQtQtQtQtQtQtQtQt",
"QtQtQtQtQtQtQtQtQtQtQtQtQtQtQtQtQtQtQtQt.t.L.M.N.O.P.Q.M.R.S.T.U.V.W.X.Y.Z.0.1.2.3.4.5.6.7.8.9#.QtQtQtQtQtQtQtQtQtQtQt",
"QtQtQtQtQtQtQtQtQtQtQtQtQtQtQtQtQt###a.r#b#c.T#d#e#e#d.T.T#f#g#h#i#j#k#l#m#n#o#e#p#q#r#s#t#u#v.v#wQtQtQtQtQtQtQtQtQtQt",
"QtQtQtQtQtQtQtQtQtQtQtQtQtQtQt#x.N.S#y#v#z#A#B#C#D#E#F#G#H#I#J#K#L#M#N#O#P#l#Q#R#S#T#U#V#W#X#Y#Z#0QtQtQtQtQtQtQtQtQtQt",
"QtQtQtQtQtQtQtQtQtQtQtQtQtQt.s#1#2#3#4#5#6#7#8#9a.a#aaab#kacadaeafagagafah#Kai#3aj.MakalamanaoapaqQtQtQtQtQtQtQtQtQtQt",
"QtQtQtQtQtQtQtQtQtQtQtQtQtarasatauavaw#8axayazaAaBaCaeaCad#OaDaEaEaEaEaEaFayaGaHaIaJaKaLaMaNaOaPaQQtQtQtQtQtQtQtQtQtQt",
"QtQtQtQtQtQtQtQtQtQtQtQtaR#1aSaTaUaVaWazaXadaDaYaYaYaEaZ#MaAagaEaEaEaEaEafaXaca0a1a2a3.Ua4aya5a6a7a8QtQtQtQtQtQtQtQtQt",
"QtQtQtQtQtQtQtQtQtQtQtQta9b.b#babb#LaDbcbdbeacaEaEaEaZaBbfafaEaEaEaEaEaEaEaCbcbgbhbibjbkblaXbmbnbobpQtQtQtQtQtQtQtQtQt",
"QtQtQtQtQtQtQtQtQtQtQtbqbr#3bsbtadagazbuaabvbwagaEaEaEbxbyaEaEaEaEaEaEaEaEagahbzbAbBbCbDbEaAbFbGbHbIQtQtQtQtQtQtQtQtQt",
"QtQtQtQtQtQtQtQtQtQtQtbJ.CbKbL#MagaYaAbMbAacahaYaYbNahbOaFaEaEaEaEaEaEaEaEaEafaeahbxbPbQbRaebSbTbUbVQtQtQtQtQtQtQtQtQt",
"QtQtQtQtQtQtQtQtQtQtQtbWbXbYaxaDaEaEaEaeahafaYaEaYbZaybcafaEaEaEaEaEaEaEaEaEaYaZaDbf#L#NafaFb0b1b2.tQtQtQtQtQtQtQtQtQt",
"QtQtQtQtQtQtQtQtQtQtQtb3.Bb4b5b6b7aEaEaYaYaYaYaZbNb8b9bfagaEaEaEaEaEaEaEaEaEbNc.aeaeaDaEbNaec#cacb.eQtQtQtQtQtQtQtQtQt",
"QtQtQtQtQtQtQtQtQtQtQtcccdcecfcgchcicjaZaZbNbZckb8clcmb9agaEaEaEaEaEaEaEaYaZbZbNaAaFafaZc.aFcna6coQtQtQtQtQtQtQtQtQtQt",
"QtQtQtQtQtQtQtQtQtQtQtcpcqcrcsctcucvcwbNckcxbZcyczcAcBcCaDaYaYaYaYaYaZbNbNc.cDaD#N#NadaFbNaFcEatcFQtQtQtQtQtQtQtQtQtQt",
"QtQtQtQtQtQtQtQtQtQtQtcGcHcIcJcKcLcMcNcOcPcQcRcScTcUcVcWcXb6aYaYaZaZaZbNbNc.bZaA#LbubxaBaZaCcYcZc0c1QtQtQtQtQtQtQtQtQt",
"QtQtQtQtQtQtQtQtQtQtQtc2c3c4c5c6c7c8c9d.d.d#dadbdccTdddedfdgafagaEaYaYaYaZc.c.agdhdidjbNaEahdkdldmdnQtQtQtQtQtQtQtQtQt",
"QtQtQtQtQtQtQtQtQtQtQtQtdodpdqdrdsdtc7dudvdwdxdydcdzdAcSdBdCdDcjcidEcxcDc.dFcDdGdHdIdJdKdLdM#WdN.4dOQtQtQtQtQtQtQtQtQt",
"QtQtQtQtQtQtQtQtQtQtQtdPdQdRdSdTdUdVdWdXdYdZd0d1d2d3d4d5d6d7d8d9e.e#eaebeceaedeeefegeheiejekelemeneoQtQtQtQtQtQtQtQtQt",
"QtQtQtQtQtepeq.gdnereseteuevewexeyezeAeBeCeDeEeFb9eGeHeIeJeKeLeMeNeOePeQeReSeTeUeVeWeXeYeZe0e1e2e3e4e5QtQtQtQtQtQtQtQt",
"QtQtQtQte6e7.Ee8e9f.f##UfafbfcfdfeffbkfgfhfifjaEb6aZaZaYfkflfmfnfofpfqbzaAfrfsftfufvfwfxfyfz#KfAfBfCbWfDfEQtQtQtQtQtQt",
"QtQtQtQtfFfGdlfHfIfJfKfLfMbcfNfefOfPfQfRfSaefTfUblfVfWfXfYbkfZf0f1bMbyf2f3f4f5f6f7f8cZf9g.g#gagbgcgdgegfggghQtQtQtQtQt",
"QtQtQtQtgigjgkglgmgngogpgqgr#vfGgsa7gtgufcgvgw#vfZaP#egxgybrgza6gA#LaggBgCfegDgEgFgGgHgI#R#vgCgJgKgLaPgM.iggQtQtQtQtQt",
"QtQtQtQtcG#ZgNgOgPcZgQbX.z.zgRgSgTgUgVgWgXgYgZg0cFaQg1g2g3g4g5g6g7g8aCg9h.h#aJhahbhca7hd#TdQhehfhghhhihjhkhlQtQtQtQtQt",
"QtQtQtQthmhnhoffhpbrhqhrhshthuhv#3hwhxhyhzhAhBhCQtQtQtQtQtQtbphD.UhEhFaBhGhHh#hIhJhKhLQtQtbqhMbogQhNhOhPhQhRQtQtQtQtQt",
"QtQtQtQtQthSg5a9g3hTg2hUhV#da6hWhX#LhYhZh0h1h2QtQtQtQtQtQtQtQth3h4bkh5#K#Oh6h7h#h8.vh9QtQtQtQti..Oi#gfiafGibQtQtQtQtQt",
"QtQtQtQtQtQtQtQtQticid#vieifigihiiijikiliminQtQtQtQtQtQtQtQtQtQtioipiqirisitbAiuivgZiwQtQtQtQtQtQtQtixiyeqQtQtQtQtQtQt",
"QtQtQtQtQtQtQtQtQtfOiziAiBiCiDiEa6a6bX.SiFQtQtQtQtQtQtQtQtQtQtQtQtiGgfcZiHiIayaciJiKiLc1QtQtQtQtQtQtQtQtQtQtQtQtQtQtQt",
"QtQtQtQtQtQtQtQtQt#ZiMiNiO#viPiQaQiwiRiSQtQtQtQtQtQtQtQtQtQtQtQtQtiTiUiViWiXiYiZi0i1i2QtQtQtQtQtQtQtQtQtQtQtQtQtQtQtQt",
"QtQtQtQtQtQtQtQtQthni3gQ#Ri4g1QtQtQtQtQtQtQtQtQtQtQtQtQtQtQtQtQtQtQtQti5hea6fei6i7#3i8i9j.QtQtQtQtQtQtQtQtQtQtQtQtQtQt",
"QtQtQtQtQtQtQtQtQtj#jag1jbjcjdQtQtQtQtQtQtQtQtQtQtQtQtQtQtQtQtQtQtQtQtjejfjgjhjijjjkgQjlfGjmQtQtQtQtQtQtQtQtQtQtQtQtQt",
"QtQtQtQtQtQtQtQtQtQtQtQtQtQtQtQtQtQtQtQtQtQtQtQtQtQtQtQtQtQtQtQtQtQtQtQtQtjnjoa6hPjpjqjrjsiLjtQtQtQtQtQtQtQtQtQtQtQtQt",
"QtQtQtQtQtQtQtQtQtQtQtQtQtQtQtQtQtQtQtQtQtQtQtQtQtQtQtQtQtQtQtQtQtQtQtQtQtQthKju#3jvjwjxjyjzjAQtQtQtQtQtQtQtQtQtQtQtQt",
"QtQtQtQtQtQtQtQtQtQtQtQtQtQtQtQtQtQtQtQtQtQtQtQtQtQtQtQtQtQtQtQtQtQtQtQtQtQtQta9jB.UjCjDjEiQjFQtQtQtQtQtQtQtQtQtQtQtQt",
"QtQtQtQtQtQtQtQtQtQtQtQtQtQtQtQtQtQtQtQtQtQtQtQtQtQtQtQtQtQtQtQtQtQtQtQtQtQtQtQt#.iQ.xjGjHjIQtQtQtQtQtQtQtQtQtQtQtQtQt",
"QtQtQtQtQtQtQtQtQtQtQtQtQtQtQtQtQtQtQtQtQtQtQtQtQtQtQtQtQtQtQtQtQtQtQtQtQtQtQtQtQtepjJjKjLQtQtQtQtQtQtQtQtQtQtQtQtQtQt",
"QtQtQtQtQtQtQtQtQtQtQtQtQtQtQtQtQtQtQtQtQtQtQtQtQtQtQtQtQtQtQtQtQtQtQtQtQtQtQtQtQtQtQtQtQtQtQtQtQtQtQtQtQtQtQtQtQtQtQt",
"QtQtQtQtQtQtQtQtQtQtQtQtQtQtQtQtQtQtQtQtQtQtQtQtQtQtQtQtQtQtQtQtQtQtQtQtQtQtQtQtQtQtQtQtQtQtQtQtQtQtQtQtQtQtQtQtQtQtQt",
"QtQtQtQtQtQtQtQtQtQtQtQtQtQtQtQtQtQtQtQtQtQtQtQtQtQtQtQtQtQtQtQtQtQtQtQtQtQtQtQtQtQtQtQtQtQtQtQtQtQtQtQtQtQtQtQtQtQtQt",
"QtQtQtQtQtQtQtQtQtQtQtQtQtQtQtQtQtQtQtQtQtQtQtQtQtQtQtQtQtQtQtQtQtQtQtQtQtQtQtQtQtQtQtQtQtQtQtQtQtQtQtQtQtQtQtQtQtQtQt",
"QtQtQtQtQtQtQtQtQtQtQtQtQtQtQtQtQtQtQtQtQtQtQtQtQtQtQtQtQtQtQtQtQtQtQtQtQtQtQtQtQtQtQtQtQtQtQtQtQtQtQtQtQtQtQtQtQtQtQt",
"QtQtQtQtQtQtQtQtQtQtQtQtQtQtQtQtQtQtQtQtQtQtQtQtQtQtQtQtQtQtQtQtQtQtQtQtQtQtQtQtQtQtQtQtQtQtQtQtQtQtQtQtQtQtQtQtQtQtQt",
"QtQtQtQtQtQtQtQtQtQtQtQtQtQtQtQtQtQtQtQtQtQtQtQtQtQtQtQtQtQtQtQtQtQtQtQtQtQtQtQtQtQtQtQtQtQtQtQtQtQtQtQtQtQtQtQtQtQtQt",
"QtQtQtQtQtQtQtQtQtQtQtQtQtQtQtQtQtQtQtQtQtQtQtQtQtQtQtQtQtQtQtQtQtQtQtQtQtQtQtQtQtQtQtQtQtQtQtQtQtQtQtQtQtQtQtQtQtQtQt",
"QtQtQtQtQtQtQtQtQtQtQtQtQtQtQtQtQtQtQtQtQtQtQtQtQtQtQtQtQtQtQtQtQtQtQtQtQtQtQtQtQtQtQtQtQtQtQtQtQtQtQtQtQtQtQtQtQtQtQt",
"QtQtQtQtQtQtQtQtQtQtQtQtQtQtQtQtQtQtQtQtQtQtQtQtQtQtQtQtQtQtQtQtQtQtQtQtQtQtQtQtQtQtQtQtQtQtQtQtQtQtQtQtQtQtQtQtQtQtQt",
"QtQtQtQtQtQtQtQtQtQtQtQtQtQtQtQtQtQtQtQtQtQtQtQtQtQtQtQtQtQtQtQtQtQtQtQtQtQtQtQtQtQtQtQtQtQtQtQtQtQtQtQtQtQtQtQtQtQtQt"};
