/* XPM */
static char *dummy[]={
"59 59 764 2",
"Qt c None",
"bJ c None",
".B c #090909",
".a c #6e6e6e",
"br c #a579ba",
".h c #fcfcfc",
"d3 c #ffffff",
".g c #606060",
"hS c #799eb9",
"cG c #91948e",
"bk c #ffffff",
"eM c #ffffff",
"aF c #d4cfd6",
"ja c #ffffff",
"gp c #213d56",
"j# c #65546f",
"c0 c #331d40",
"a1 c #969995",
".# c #565656",
"aW c #5f5762",
"#R c #3c2d44",
"id c #424143",
"jD c #574465",
"fI c #6b656e",
".A c #050505",
"i7 c #464646",
"gS c #6d6472",
"jZ c #271331",
".S c #2f2b31",
"#n c #3b363e",
"hT c #2a202f",
"#9 c #39323b",
".Y c #5e5960",
"ik c #656068",
"jO c #9a949d",
"bR c #150420",
"eu c #464547",
"iK c #38343c",
".H c #181818",
"bQ c #2b1e33",
".d c #3f3f3f",
"jl c #21142b",
"bI c #413e42",
"fg c #4d4850",
"hU c #44394c",
"hx c #2f1d3b",
"f6 c #353138",
"iF c #343136",
"gR c #3d3641",
"iL c #403a43",
"h# c #000004",
".s c #292929",
"hw c #0f2335",
"cH c #48404e",
"ij c #201726",
"#C c #373339",
"jN c #669a4b",
"aG c #241a2a",
".e c #272727",
"i6 c #39353a",
"## c #29252b",
"#S c #2b262e",
"hY c #312e32",
"e2 c #322e34",
"gO c #27192f",
"aX c #312c33",
"gN c #091728",
"ic c #1f2225",
"dF c #2d2631",
".q c #2e2e2e",
".M c #0c0c0c",
"jp c #312b34",
".E c #0d0d0d",
".t c #212121",
"c. c #251c2a",
"bl c #29242b",
"j0 c #2e2831",
"j3 c #211925",
"gq c #362c3b",
"hX c #140b1a",
"gT c #2f2f2f",
"jt c #262327",
"iG c #322d34",
".N c #242424",
"h. c #010714",
"#8 c #130a19",
"js c #2b292c",
".p c #202020",
"hB c #231c26",
".k c #202020",
"d2 c #221c25",
"j5 c #4a5f3f",
"jC c #3d6728",
"hd c #262028",
"eN c #2d2b2e",
"fu c #1d1820",
"hA c #100815",
"cZ c #17101b",
"dG c #1a121f",
"aE c #221b25",
"jH c #201f21",
"ff c #1b171d",
"cg c #201b22",
"ch c #969198",
"bj c #211b24",
"fv c #231d26",
"j2 c #261d2a",
"jV c #1d1721",
"ce c #160d1b",
"il c #1c161f",
".Z c #383838",
"hc c #0e0713",
"j1 c #2d2631",
"iM c #18111b",
"f5 c #0a161e",
"et c #1c1a1e",
".J c #393939",
".P c #1a1a1a",
"ao c #0d0611",
"fh c #19131c",
".T c #18121c",
"cf c #1c161f",
".b c #1f1f1f",
"jP c #1a181b",
"fH c #1e1821",
"a0 c #17121a",
"#a c #424242",
".X c #130c16",
"dE c #18101b",
"iD c #1e1821",
"eO c #181619",
"#B c #0f0913",
".n c #272727",
".m c #141414",
"jq c #0f0712",
".v c #323232",
"iE c #1a131d",
"#o c #444444",
".G c #444444",
"gQ c #07000c",
".w c #2c2c2c",
"a2 c #0b050f",
"hZ c #141016",
"di c #0e0911",
"bq c #151217",
"ap c #0d0711",
"i8 c #151416",
"fJ c #171618",
"aY c #130d16",
"jk c #355d21",
"jU c #181818",
".i c #191919",
".D c #3d3d3d",
"jr c #0b040e",
"i0 c #131014",
".1 c #191919",
".f c #1b1b1b",
"bi c #0e0811",
".K c #4c4c4c",
"cF c #100e11",
"iN c #0b050e",
"jo c #0c090e",
"hC c #110e12",
"ie c #141514",
"j4 c #6ea851",
"jb c #0e0d0f",
"dj c #0b080d",
"eP c #0d0810",
"gU c #131313",
".l c #131313",
"b9 c #0f0e10",
"d4 c #0e0910",
".U c #0b050e",
"aZ c #100a13",
"im c #0c070e",
"dD c #0b050e",
"he c #0c080e",
".c c #1c1c1c",
"aV c #0e0c0f",
"jf c #18191d",
".W c #08030b",
"ev c #0e0b0f",
"bK c #0c090e",
"d1 c #0d080f",
"je c #1e1f26",
"bH c #0e0a10",
"aD c #0a040d",
".y c #464646",
"fw c #110a14",
"hR c #19130f",
"jW c #0c0b0d",
"jM c #0f110e",
"bh c #0c080f",
"jB c #0d0e0d",
"jI c #0e0c0f",
"cx c #0a060b",
".V c #0f0b11",
".4 c #060407",
"iZ c #090c0d",
"jy c #141912",
"bs c #0f120e",
"#D c #070409",
"cy c #060009",
"a. c #070608",
".C c #3e3e3e",
"eQ c #09060b",
".3 c #555455",
"#m c #0b0a0c",
"ft c #09070b",
"#. c #0b090b",
"go c #140e0b",
".x c #2b2b2b",
"bg c #030005",
"jx c #131114",
"iO c #0c0b0d",
"j. c #121510",
".R c #808080",
"#Q c #10150e",
"#T c #0b0a0b",
"c1 c #121a0e",
"iC c #192513",
"fi c #0e100d",
"e3 c #121610",
"i5 c #0e0f0d",
"e1 c #141713",
"jG c #11150e",
"h0 c #0c0d0c",
"ig c #0a090b",
"gv c #0b0b0b",
"jE c #0f140d",
"jA c #141513",
".z c #565656",
"jY c #0c0d0b",
"if c #090c08",
"bm c #0e120d",
".j c #0e0e0e",
"bS c #192712",
"hV c #1a2a12",
"iJ c #0c1009",
".r c #161616",
"#c c #3e3e3e",
".Q c #848484",
"dC c #050306",
"eR c #070807",
"jz c #131e0d",
"in c #0d100c",
"ib c #040907",
"eL c #171c15",
"bP c #151f0f",
"cI c #1b2d13",
"hD c #0c100a",
"gu c #0d110b",
"ci c #1f3215",
"hy c #223617",
"cD c #060706",
"i9 c #11180d",
"aH c #15200f",
"ha c #203714",
".I c #505050",
"f7 c #0b0e09",
"ii c #15210e",
"gw c #030005",
"fe c #0e150b",
"jQ c #11190d",
"hv c #40200b",
"fG c #040206",
"d0 c #0e140b",
"gt c #0a1006",
"es c #0f170c",
"ju c #050505",
"c# c #1a2a11",
"jT c #10190c",
"gV c #121c0d",
"jm c #1a2b11",
".o c #242424",
"gP c #28431b",
"ih c #0b1008",
"hf c #121c0d",
"gM c #44210a",
"jd c #020505",
"jX c #111c0c",
".u c #444444",
"iP c #13200d",
"f4 c #51260a",
"gr c #1c2b14",
"jw c #223a15",
"#7 c #243e17",
"cd c #294719",
"iT c #2a1608",
"cw c #090f07",
"cC c #274518",
".L c #8c8c8c",
"ew c #070907",
"dH c #1b2e12",
"hW c #203715",
"iS c #251104",
"i1 c #2a4a1a",
"g9 c #592a0b",
".O c #656565",
".0 c #7c7c7c",
"ah c #000000",
"dT c #020301",
"df c #050a03",
"#1 c #060606",
"fx c #070a05",
"cT c #080e05",
"gx c #080f05",
"fF c #090602",
"cS c #091005",
"hg c #0a1206",
"#r c #0c0c0c",
"fT c #0c1507",
"eo c #0d1708",
"iY c #0e0d05",
"iH c #0e140b",
"ex c #0e1809",
"#q c #0f0e10",
"gb c #111f0a",
"gf c #11230c",
"#L c #121212",
"iR c #121707",
"g. c #12200b",
"en c #12210b",
"hG c #12250d",
"jg c #12290e",
"#e c #131412",
"cO c #13210b",
"fp c #13220b",
"fB c #13220c",
"gk c #141507",
"bG c #14210e",
"dy c #14230c",
"dW c #14240c",
"iX c #151506",
"aN c #151515",
"iA c #161617",
"cE c #16240f",
"aU c #16250f",
"cW c #16270d",
"fP c #16280e",
"e4 c #17270f",
"i2 c #17290e",
"#M c #181719",
"#N c #182113",
"hO c #18230b",
"fK c #182910",
"fz c #192c0f",
"ej c #192d0f",
"#E c #192e0f",
"h3 c #1a0801",
"h1 c #1a2c11",
"jJ c #1a2d12",
"cR c #1a2e10",
"fy c #1a2f10",
"iU c #1b0d04",
"fs c #1b2e11",
"jS c #1b2e12",
"aT c #1b2f11",
"de c #1b3010",
"e8 c #1b3110",
"f1 c #1b3111",
"#F c #1b3210",
"io c #1c2f12",
"f0 c #1c3010",
"i3 c #1c3011",
"bp c #1c3112",
"ge c #1c3211",
"#W c #1c3311",
"cY c #1d3113",
"hj c #1d3311",
"eY c #1d3412",
"jR c #1e3214",
".5 c #1e3413",
"f. c #1e3512",
"i# c #1f1a10",
"eZ c #1f3713",
"gc c #1f3813",
"jc c #1f3913",
"gg c #20270d",
".9 c #203714",
"dr c #203913",
"jj c #203c14",
"dP c #213b14",
"eJ c #213c14",
"gY c #223c14",
"f# c #223c15",
"cA c #223d14",
"ec c #223d15",
"d# c #223e15",
"dZ c #233d16",
"bf c #233e15",
"e5 c #233f15",
"iW c #241605",
"b. c #242424",
"dA c #244015",
"eC c #244116",
"ca c #254216",
"hl c #261a07",
"#2 c #262626",
"fb c #264317",
"eV c #274517",
"i4 c #274518",
"eU c #274618",
"gZ c #27531d",
"eI c #284718",
"#G c #284817",
"dX c #294a19",
"gs c #2a4b19",
"a9 c #2b2b2b",
"hs c #2b4718",
"hz c #2b4b1b",
"fn c #2b4c1a",
"eW c #2b4d1a",
"d5 c #2c4e1a",
"fS c #2c4f1b",
"g7 c #2d4918",
"cz c #2d501b",
"bn c #2d511b",
"dq c #2e511b",
"fD c #2e521c",
"fW c #2e531c",
"#A c #2f521d",
"ed c #2f541d",
"do c #2f551d",
"aq c #30551d",
"dL c #30561d",
"b8 c #30571d",
"hQ c #311303",
"ds c #31571d",
"hh c #31581e",
"gK c #323410",
"gX c #325b1f",
"ht c #326021",
"gh c #331d07",
"eB c #335b1f",
"bF c #335c1f",
"aQ c #345623",
"c7 c #345d1f",
"g6 c #346a24",
"cU c #355e20",
"eg c #355f20",
"iV c #361c06",
"cL c #366020",
"hb c #366021",
"cr c #366121",
"iB c #36631f",
"h2 c #366422",
"dl c #376221",
"eF c #376321",
"gW c #386422",
"#U c #386522",
"#x c #394135",
"jL c #39512d",
"ei c #396522",
"ac c #396622",
"c4 c #396623",
"fU c #396723",
"e# c #3a6723",
"bC c #3a6823",
"ip c #3b6923",
"gB c #3b6924",
"fL c #3b6a23",
"bL c #3b6a24",
"fZ c #3b7328",
"an c #3c6a24",
"fj c #3c6b24",
"a3 c #3c6b25",
"cP c #3c6c24",
"jh c #3c7126",
"iI c #3d6d24",
"ey c #3e6e25",
"jn c #3e6f25",
"b4 c #3e6f26",
"#l c #3e7025",
"e. c #3e7026",
"hP c #3e7327",
"jv c #3f6d28",
"bo c #3f7126",
"ia c #3f7426",
"a# c #407226",
"bD c #407227",
"cM c #417327",
".6 c #417627",
"gI c #421c05",
"dY c #427527",
"dv c #427528",
".8 c #427728",
"jK c #43742a",
"d. c #437728",
"dQ c #437829",
"#f c #437927",
"gD c #441f06",
"dS c #447929",
"cV c #447a29",
"gd c #457b2a",
"fd c #457c29",
"#s c #457d28",
"ek c #467c2a",
"eE c #467d2a",
"hF c #46812c",
"gJ c #468b30",
"d6 c #477e2a",
"dO c #477e2b",
"dg c #477f2b",
"bW c #48643a",
"bE c #48812b",
"dw c #48812c",
"fX c #48832d",
"bc c #49822c",
"e9 c #49832c",
"fr c #49842c",
"ji c #49862d",
"g# c #4a832c",
"fM c #4a842c",
"fE c #4a842d",
"d8 c #4a852d",
"gm c #4b2d0b",
"aA c #4b633e",
"bZ c #4b663d",
"#5 c #4b7d31",
"dR c #4b852d",
"aC c #4b862d",
"#h c #4b882d",
"fo c #4c872e",
"fC c #4c882e",
"dk c #4d892e",
"fk c #4d892f",
"dU c #4e8b2f",
"a6 c #4e8b30",
".7 c #4e8c2e",
"dB c #4e8c2f",
"#i c #4f8a31",
"b2 c #4f8d30",
"ez c #4f8e2f",
"e6 c #4f8e30",
"b1 c #508e30",
"cQ c #508f30",
"f2 c #509934",
"iq c #509b35",
"#Y c #518636",
"c5 c #519131",
"gl c #519d36",
"bx c #526847",
"eH c #529131",
"eG c #529231",
"dI c #529232",
"gC c #529d36",
"dN c #539532",
"#y c #539630",
"ba c #548f36",
"hi c #549532",
"fA c #549533",
"gy c #549632",
"dd c #549633",
"dM c #549733",
"f3 c #552507",
"dx c #559733",
"aS c #559833",
"e0 c #559932",
"aP c #565358",
"da c #569934",
"dz c #569a34",
"ay c #575757",
"eb c #579b34",
"aK c #587a46",
"ef c #589d35",
"f8 c #589f35",
"#t c #58a033",
"bA c #596e4e",
"fO c #599e36",
"dh c #599f35",
"eA c #5aa036",
"cN c #5aa136",
"cn c #5aa933",
"ir c #5b2708",
"eD c #5ba237",
"e7 c #5ba337",
"eK c #5ba536",
"cm c #5ba933",
"ga c #5ca437",
"f9 c #5ca537",
"dt c #5ca538",
"hk c #5cad3b",
"iz c #5d2f11",
"ae c #5d7c4e",
"db c #5da638",
"ct c #5ea839",
"jF c #5eaa38",
"bt c #5faa39",
"fa c #5faa3a",
"#g c #5fb137",
"al c #607e51",
"dn c #60aa3a",
"fR c #60ab3a",
"fY c #60b23d",
"b# c #615d63",
"c6 c #61ac3a",
"b0 c #61b338",
"aO c #626262",
"eS c #62ae3b",
"bd c #62af3b",
"cv c #62b03b",
"bV c #62b438",
"eh c #63b13c",
"#X c #63b33b",
"dK c #64b23c",
"#P c #64b33c",
"iQ c #64b53d",
"#H c #64ba39",
"aw c #657e58",
"ab c #65b43d",
"#u c #666f61",
"gA c #66b63d",
"du c #66b63e",
"er c #66b73d",
"d9 c #66b73e",
"fV c #67b73e",
"b3 c #67b83e",
"fm c #67b93f",
"dp c #68b93e",
"ee c #68b93f",
"eT c #68ba3f",
"c2 c #69bb3f",
"cq c #69bc40",
"bO c #69bd3f",
"#O c #69be3e",
"dc c #6abd40",
"#j c #6abe3f",
"em c #6abe40",
"#V c #6bbf40",
"bw c #6bc43e",
"cb c #6cc041",
"#I c #6d7768",
"cX c #6dc341",
"dJ c #6dc342",
"b7 c #6ec542",
"eX c #6ec543",
"av c #6ecc3f",
"bT c #6fc642",
"dV c #6fc643",
"gz c #6fc743",
"fl c #70c743",
"fQ c #70c843",
"fq c #70c844",
"co c #70cb42",
"cl c #70cc42",
"c8 c #71c944",
"bB c #71ca44",
"be c #71cb44",
"cJ c #72cb44",
"cs c #72cb45",
"fc c #72cc45",
".F c #737373",
"fN c #73cd45",
"cj c #73ce45",
"cK c #73ce46",
"aJ c #73d143",
"ad c #73d243",
"ix c #74340b",
"d7 c #74ce46",
"at c #74cf46",
"as c #74d046",
"bv c #75d046",
"c3 c #75d047",
"c9 c #75d146",
"au c #75d147",
"el c #75d247",
"aB c #75d544",
"am c #75d643",
"aI c #76d247",
"ck c #76d347",
"cu c #76d348",
"bU c #77d348",
"eq c #77d447",
"bu c #77d448",
"a5 c #77d548",
"ar c #78d548",
"cc c #78d648",
"cp c #78d649",
"b5 c #78d749",
"#6 c #78d848",
"b6 c #79d749",
"#k c #79d849",
"a4 c #79d949",
"ai c #7a7a7a",
"ea c #7ad949",
"bM c #7ad94a",
"aa c #7ada4a",
"aR c #7adb49",
"bN c #7bdb4a",
"bb c #7bdc4a",
"iu c #7c390c",
"hE c #7cdc4b",
"cB c #7cdd4b",
"#z c #7cde4b",
"dm c #7ddf4b",
"gj c #7e350a",
"#p c #7e7c7f",
"bX c #7e827d",
"ep c #7ee04c",
"bY c #81857f",
"g5 c #88380b",
"hJ c #883e0d",
"hq c #8c400d",
"hn c #8f420e",
"gi c #913f0c",
"#K c #929292",
"#w c #969298",
"g4 c #97450e",
"hM c #9c470f",
"h4 c #9d460e",
"gF c #a0480f",
"h8 c #a0490f",
"#b c #a0a0a0",
"hu c #a4450c",
"ag c #a4a4a4",
"hH c #a5480e",
"gH c #a64c10",
"g0 c #a8460e",
"ax c #aaaaaa",
"h7 c #b35211",
"a8 c #b3b3b3",
"h6 c #b55311",
"gE c #ba5211",
"#d c #bab9bb",
"#4 c #bbb7bd",
"#v c #bcb8be",
"g1 c #be5712",
"g2 c #bf5712",
"a7 c #c0bcc2",
"i. c #c15a16",
".2 c #c1c1c1",
"gn c #c95a12",
"hr c #cb5811",
"iy c #d36113",
"g8 c #d55d12",
"hL c #d66214",
"h9 c #d86314",
"bz c #d8d4db",
"#3 c #dbdbdb",
"#0 c #dcdcdc",
"#Z c #ddd8df",
"hN c #de6314",
"by c #e0dce3",
"iw c #e46815",
"aM c #e4e4e4",
"ho c #e56916",
"gL c #ec6915",
"iv c #ee6e17",
"it c #ef6e16",
"hm c #f36e17",
"hI c #f57117",
"az c #f6f3f7",
"hp c #f87218",
"aL c #f8f5fa",
"is c #fb7618",
"#J c #fdfbfe",
"hK c #fe7719",
"g3 c #ff7919",
"h5 c #ff7c1a",
"gG c #ff7f1a",
"ak c #fffbff",
"af c #fffeff",
"aj c #ffffff",
"QtQtQtQtQtQtQtQtQtQtQtQtQtQtQtQtQtQtQtQtQtQtQtQtQtQtQtQtQtQtQtQtQtQtQtQtQtQtQtQtQtQtQtQtQtQtQtQtQtQtQtQtQtQtQtQtQtQtQt",
"QtQtQtQtQtQtQtQtQtQtQtQtQtQtQtQtQtQtQtQtQtQtQtQtQtQtQtQtQtQtQtQtQtQtQtQtQtQtQtQtQtQtQtQtQtQtQtQtQtQtQtQtQtQtQtQtQtQtQt",
"QtQtQtQtQtQtQtQtQtQtQtQtQtQtQtQtQtQtQtQtQtQtQtQtQtQtQtQtQtQtQtQtQtQtQtQtQtQtQtQtQtQtQtQtQtQtQtQtQtQtQtQtQtQtQtQtQtQtQt",
"QtQtQtQtQtQtQtQtQtQtQtQtQtQtQtQtQtQtQtQtQtQtQtQtQtQtQtQtQtQtQtQtQtQtQtQtQtQtQtQtQtQtQtQtQtQtQtQtQtQtQtQtQtQtQtQtQtQtQt",
"QtQtQtQtQtQtQtQtQtQtQtQtQtQtQtQtQtQtQtQtQtQtQtQtQtQtQtQtQtQtQtQtQtQtQtQtQtQtQtQtQtQtQtQtQtQtQtQtQtQtQtQtQtQtQtQtQtQtQt",
"QtQtQtQtQtQtQtQtQtQtQtQtQtQtQtQtQtQtQtQtQtQtQtQtQtQtQtQtQtQtQtQtQtQtQtQtQtQtQtQtQtQtQtQtQtQtQtQtQtQtQtQtQtQtQtQtQtQtQt",
"QtQtQtQtQtQtQtQtQtQtQtQtQt.#.aQtQt.b.c.dQtQtQtQtQtQtQtQtQtQtQtQtQtQtQtQtQtQtQtQtQtQtQtQtQtQtQtQtQtQtQtQtQtQtQtQtQtQtQt",
"QtQtQtQtQtQtQtQtQtQtQtQt.e.f.g.h.i.j.kQtQtQtQtQtQtQtQtQtQtQtQtQtQtQtQtQtQtQtQtQtQtQtQtQtQtQtQtQtQtQtQtQtQtQtQtQtQtQtQt",
"QtQtQtQtQtQtQtQtQtQtQtQt.l.mQt.n.o.pQtQtQtQtQtQtQtQtQtQtQtQtQtQtQtQtQtQtQtQtQtQtQtQtQtQtQtQtQtQtQtQtQtQtQtQtQtQtQtQtQt",
"QtQtQtQtQtQtQtQtQtQtQt.q.r.s.t.u.vQtQtQtQtQtQtQtQtQtQtQtQtQtQtQtQtQtQtQtQtQtQtQtQtQtQtQtQtQtQtQtQtQtQtQtQtQtQtQtQtQtQt",
"QtQtQtQtQtQtQtQtQtQtQt.w.xQt.y.z.AQtQtQtQtQtQtQtQtQtQtQtQtQtQtQtQtQtQtQtQtQtQtQtQtQtQtQtQtQtQtQtQtQtQtQtQtQtQtQtQtQtQt",
"QtQtQtQtQtQtQtQtQtQt.B.C.D.E.F.GQtQtQtQtQtQtQtQtQtQtQtQtQtQtQtQtQtQtQtQtQtQtQtQtQtQtQtQtQtQtQtQtQtQtQtQtQtQtQtQtQtQtQt",
"QtQtQtQtQtQtQtQtQtQt.H.I.J.K.L.MQtQtQtQtQtQtQtQtQtQtQtQtQtQtQtQtQtQtQtQtQtQtQtQtQtQtQtQtQtQtQtQtQtQtQtQtQtQtQtQtQtQtQt",
"QtQtQtQtQtQtQtQtQtQt.N.O.P.Q.R.S.T.U.V.W.X.YQtQtQtQtQtQtQtQtQtQtQtQtQtQtQtQtQtQtQtQtQtQtQtQtQtQtQtQtQtQtQtQtQtQtQtQtQt",
"QtQtQtQtQtQtQtQtQtQt.Z.0.1.2.3.4.5.6.7.8.9#.##QtQtQtQtQtQtQtQtQtQtQtQtQtQtQtQtQtQtQtQtQtQtQtQtQtQtQtQtQtQtQtQtQtQtQtQt",
"QtQtQtQtQtQtQtQtQtQt#a#b#c#d#e#f#g#h#i#j#k#l#m#nQtQtQtQtQtQtQtQtQtQtQtQtQtQtQtQtQtQtQtQtQtQtQtQtQtQtQtQtQtQtQtQtQtQtQt",
"QtQtQtQtQtQtQtQtQtQt#o#p#q#r#s#t#u#v#w#x#y#z#A#BQtQtQtQtQtQtQtQtQtQtQtQtQtQtQtQtQtQtQtQtQtQtQtQtQtQtQtQtQtQtQtQtQtQtQt",
"QtQtQtQtQtQtQtQtQt#C#D#E#F#G#H#I#J#K#L#M#N#O#P#Q#RQtQtQtQtQtQtQtQtQtQtQtQtQtQtQtQtQtQtQtQtQtQtQtQtQtQtQtQtQtQtQtQtQtQt",
"QtQtQtQtQtQtQtQt#S#T#U#V#W#X#Y#Z#0#1#2#3#4#5#6#7#8QtQtQtQtQtQtQtQtQtQtQtQtQtQtQtQtQtQtQtQtQtQtQtQtQtQtQtQtQtQtQtQtQtQt",
"QtQtQtQtQtQtQt#9a.a#aaabacadaeafagahaiajakalamanaoQtQtQtQtQtQtQtQtQtQtQtQtQtQtQtQtQtQtQtQtQtQtQtQtQtQtQtQtQtQtQtQtQtQt",
"QtQtQtQtQtQtQtapaqarasatauavawajaxahayajazaAaBaCaDaEaFQtQtQtQtQtQtQtQtQtQtQtQtQtQtQtQtQtQtQtQtQtQtQtQtQtQtQtQtQtQtQtQt",
"QtQtQtQtQtQtaGaH#VaIatatataJaKaLaMaNahaOaPaQaRaSaTaUaVaWQtQtQtQtQtQtQtQtaXaYaZa0a1QtQtQtQtQtQtQtQtQtQtQtQtQtQtQtQtQtQt",
"QtQtQtQtQtQta2a3a4atatatata5a6a7aja8a9b.b#babbbcbdbebfbgbhbibjbkQtQtQtblbmbnbobpbqQtQtQtQtQtQtQtQtQtQtQtQtQtQtQtQtQtQt",
"QtQtQtQtQtbrbsbtbuatatatatbvbwbxbyajafbzbAbwbBbCbe#kbDbcbEbFbGbHbIQtbJbKbLbMbNbObPbQQtQtQtQtQtQtQtQtQtQtQtQtQtQtQtQtQt",
"QtQtQtQtQtbRbSbTauatatatatatbUbVbWbXbYbZb0bNb1b2#kb3b4a4b5b6b7b8b9Qtc.c#cacbaucccdcecfcgbkQtQtQtQtQtQtQtQtQtQtQtQtQtQt",
"QtQtQtQtQtchcicjbvatatatatatatckclcmcncocpcqcrcsb5bDctcuatatbMcvcwcxcyczcAaCcBbbcCcD.9cEcFcGQtQtQtQtQtQtQtQtQtQtQtQtQt",
"QtQtQtQtQtcHcIcJbvatatatatatatatasckckaucKcLbtbNaScMa5atas#kcNcOcPcQbFcRcScTcUcVcWaSbucXcYcZQtQtQtQtQtQtQtQtQtQtQtQtQt",
"QtQtQtQtQtc0c1c2aIatatatatatatatatatauc3c4c5cBc6c7c8c9ckaId.d#dacPbLdbcsdcdddedfdgdhbubMbcdiQtQtQtQtQtQtQtQtQtQtQtQtQt",
"QtQtQtQtQtQtdjdk#katatckasatatatatbubBdldkdmdndodcbu#kdpdqdrdsdtaIdudvbFdwdxdydzcNdAccb5dBdCdDdEdFQtQtQtQtQtQtQtQtQtQt",
"QtQtQtQtQtQtdGdHcJccccdIdJc3atbvb6dKdLdMdmdNdsdcbNatdOcWdPdcc2dQc7dRc2bBdSdTdUaadVdWc5dmd.dXdYdZd0d1d2QtQtQtQtQtQtQtQt",
"QtQtQtQtQtQtd3d4d5dKd6dQb5a5ccd7d8dLd9ase.e#ateaebecedeeefegbLefehcQeicMejeka4elemeneocQdxdoepeqercPesetQtQtQtQtQtQtQt",
"QtQtQtQtQtQtQteuevewexeyezcteAeBbcasefaqdNb5eAcaeCeDccaIa5aIcveEeFdcasdec4b6atcceGbneHeIabeJasataIeaeKeLQtQtQtQtQtQtQt",
"QtQtQtQtQtQtQtQteMeNeOePeQeRded9eSdldveTdxeUeUaqeVc2#katatataIccckaIdXeWcubvat#kcrdQeXeYc2eZcbaubvbMe0e1QtQtQtQtQtQtQt",
"QtQtQtQtQtQtQtQtQtQtQtQtd3e2e3e4e5e6bDeCdLe7ck#kb2e8e9ela5atatat#ke#f.csauatatauf#dbardPfafbdnbNfcfdfeffQtQtQtQtQtQtQt",
"QtQtQtQtQtQtQtQtQtQtQtQtQtQtfgfhfidWfjfkc5ebflaub5fmfnfbcNckccaafofpdcbUatataId9eYfqeac7foegdQfrfsftfuQtQtQtQtQtQtQtQt",
"QtQtQtQtQtQtQtQtQtQtQtQtQtQtQtfvfwfxcWdWfyfzeIcKasckbuddeVeWdUfAfBeSeaatatatcpfCfDbN#zdBeBfEfFfGfHfIQtQtQtQtQtQtQtQtQt",
"QtQtQtQtQtQtQtQtQtQtQtQtQtbJfJfKfLfMctfNaafOfPfQc3bucpatfRfSahahfTfUfVckatatb6fWfXfYfZf0f1f2f3f4f5QtQtQtQtQtQtQtQtQtQt",
"QtQtQtQtQtQtQtQtQtQtQtQtQtf6f7f8eXb3f9e9bng.g#bubugafDdWgbgceggde9gegbdJaubvbBgfggghgigjgkglgmgngogpQtQtQtQtQtQtQtQtQt",
"QtQtQtQtQtQtQtQtQtQtQtQtQtgqgrgsgtgugvgwgxgybb#kdUg.cLcNgzeabbeagAgBcAfocpa5gCgDgEgFgGgHgIgJgKgLgMgNQtQtQtQtQtQtQtQtQt",
"QtQtQtQtQtQtQtQtQtQtQtQtQtgOgPdvgQgRgSgTgUgVgW#VgsgXb3eAdOeBgYfzfBcbdUfDcp#kgZg0g1g2g3g4g5g6g7g8g9h.QtQtQtQtQtQtQtQtQt",
"QtQtQtQtQtQtQtQtQtQtQtQtQth#hahbhcQtQtQtQthdhehff.hgdWfzeJhh.8higcdIeehjckhkhlhmhnhohphqhrhshthuhvhwQtQtQtQtQtQtQtQtQt",
"QtQtQtQtQtQtQtQtQtQtQtQtQthxhyhzhAQtQtQtQtQtQthBhChDdPc5cjdmbNhEc5eCckdPhFhGhHhIhJhKhLhMhNhOhPhQhRhSQtQtQtQtQtQtQtQtQt",
"QtQtQtQtQtQtQtQtQtQtQtQthThUhVhWhXQtQtQtQtQtQtQtQthYhZh0h1cPbtatckhjabh2h3h4h5h6h7h5h8h9i.i#iaibicQtQtQtQtQtQtQtQtQtQt",
"QtQtQtQtQtQtQtQtQtQtidieifigihiiijQtQtQtQtQtQtQtQtQtQtikiliminioipcAaciqirisitiuiviwixiyiziAiBiCiDiEiFQtQtQtQtQtQtQtQt",
"QtQtQtQtQtQtQtQtQtQtiGiHbEcNiIiJiKQtQtQtQtQtQtQtQtQtQtQtQtQtiLiMiNiOiPiQiRiSiTiUiViWiXiYiZi0i1i2i3i4i5i6QtQtQtQtQtQtQt",
"QtQtQtQtQtQtQtQtQtQti7i8i9fnc7j.j#QtQtQtQtQtQtQtQtQtQtQtQtQtQtQtQtjajbdLjcjdjejfjgjhjijjjkjljmdrc2bbjnjoQtQtQtQtQtQtQt",
"QtQtQtQtQtQtQtQtQtQtQtQtjpjqjrjsQtQtQtQtQtQtQtQtQtQtQtQtQtQtQtQtQtQtjtjujve6jwjxjyjzjAjBjCjDjEfrelasjFjGQtQtQtQtQtQtQt",
"QtQtQtQtQtQtQtQtQtQtQtQtQtQtQtQtQtQtQtQtQtQtQtQtQtQtQtQtQtQtQtQtQtQtQtjHjIjJjKjLjMjNjOQtQtQtjPjQjRjSjTjUQtQtQtQtQtQtQt",
"QtQtQtQtQtQtQtQtQtQtQtQtQtQtQtQtQtQtQtQtQtQtQtQtQtQtQtQtQtQtQtQtQtQtQtQtbkjVjWjXjYjZQtQtQtQtQtj0j1j2j3bJQtQtQtQtQtQtQt",
"QtQtQtQtQtQtQtQtQtQtQtQtQtQtQtQtQtQtQtQtQtQtQtQtQtQtQtQtQtQtQtQtQtQtQtQtQtQtbJj4j5QtQtQtQtQtQtQtQtQtQtQtQtQtQtQtQtQtQt",
"QtQtQtQtQtQtQtQtQtQtQtQtQtQtQtQtQtQtQtQtQtQtQtQtQtQtQtQtQtQtQtQtQtQtQtQtQtQtQtQtQtQtQtQtQtQtQtQtQtQtQtQtQtQtQtQtQtQtQt",
"QtQtQtQtQtQtQtQtQtQtQtQtQtQtQtQtQtQtQtQtQtQtQtQtQtQtQtQtQtQtQtQtQtQtQtQtQtQtQtQtQtQtQtQtQtQtQtQtQtQtQtQtQtQtQtQtQtQtQt",
"QtQtQtQtQtQtQtQtQtQtQtQtQtQtQtQtQtQtQtQtQtQtQtQtQtQtQtQtQtQtQtQtQtQtQtQtQtQtQtQtQtQtQtQtQtQtQtQtQtQtQtQtQtQtQtQtQtQtQt",
"QtQtQtQtQtQtQtQtQtQtQtQtQtQtQtQtQtQtQtQtQtQtQtQtQtQtQtQtQtQtQtQtQtQtQtQtQtQtQtQtQtQtQtQtQtQtQtQtQtQtQtQtQtQtQtQtQtQtQt",
"QtQtQtQtQtQtQtQtQtQtQtQtQtQtQtQtQtQtQtQtQtQtQtQtQtQtQtQtQtQtQtQtQtQtQtQtQtQtQtQtQtQtQtQtQtQtQtQtQtQtQtQtQtQtQtQtQtQtQt",
"QtQtQtQtQtQtQtQtQtQtQtQtQtQtQtQtQtQtQtQtQtQtQtQtQtQtQtQtQtQtQtQtQtQtQtQtQtQtQtQtQtQtQtQtQtQtQtQtQtQtQtQtQtQtQtQtQtQtQt",
"QtQtQtQtQtQtQtQtQtQtQtQtQtQtQtQtQtQtQtQtQtQtQtQtQtQtQtQtQtQtQtQtQtQtQtQtQtQtQtQtQtQtQtQtQtQtQtQtQtQtQtQtQtQtQtQtQtQtQt",
"QtQtQtQtQtQtQtQtQtQtQtQtQtQtQtQtQtQtQtQtQtQtQtQtQtQtQtQtQtQtQtQtQtQtQtQtQtQtQtQtQtQtQtQtQtQtQtQtQtQtQtQtQtQtQtQtQtQtQt",
"QtQtQtQtQtQtQtQtQtQtQtQtQtQtQtQtQtQtQtQtQtQtQtQtQtQtQtQtQtQtQtQtQtQtQtQtQtQtQtQtQtQtQtQtQtQtQtQtQtQtQtQtQtQtQtQtQtQtQt"};
