/* XPM */
static char *dummy[]={
"59 59 325 2",
"Qt c None",
"az c None",
"ba c None",
"#T c None",
"au c None",
".V c None",
".7 c None",
"bB c #877575",
"bN c #9b9b9b",
"bZ c #9d9c9c",
"cC c #afa8a8",
"#5 c #ffffff",
"cg c #777575",
"cV c #828282",
".I c #8f8f8f",
"#F c #939292",
"#G c #979a9a",
"#s c #9f9f9f",
"ap c #aaaaaa",
".J c #dfdddd",
"af c #e5e1e1",
"aF c #9a9a9a",
"aA c #9e9999",
".P c #b4b1b1",
"#h c #c0bcbc",
"bq c #cbc3c3",
"b5 c #938f8f",
".2 c #9d9d9d",
"b# c #a1a1a1",
"#U c #c4c3c3",
"bg c #878282",
"bf c #8d8d8d",
"a0 c #858585",
"c4 c #878383",
"cf c #a1a1a1",
"cB c #afafaf",
"bU c #7b7a7a",
"br c #888585",
"bT c #989797",
"cR c #969696",
".O c #979797",
"cq c #848282",
"cH c #868383",
"aK c #878787",
"cp c #999999",
"cw c #6c6b6b",
"a5 c #818080",
".W c #888787",
"aG c #959393",
"#M c #878787",
"b9 c #999898",
"b8 c #b4afaf",
"cG c #888585",
".1 c #8a8787",
"#b c #919090",
"bH c #848383",
"#Z c #898989",
"#N c #919191",
"#6 c #949494",
"ag c #919191",
"a6 c #8e8b8b",
".# c #9e9e9e",
"#0 c #868686",
"cM c #706e6e",
"cW c #868585",
".8 c #969696",
"#n c #a6a6a6",
"#a c #8c8b8b",
"bG c #8d8d8d",
".p c #939393",
"dc c #a2a2a2",
"aq c #a0a0a0",
"a# c #898989",
"bv c #8a8a8a",
"b0 c #7e7d7d",
"bw c #7e7e7e",
".B c #959595",
"cv c #888888",
"#m c #919090",
"bO c #6e6d6d",
"bY c #8a8989",
"cU c #919191",
"c3 c #959292",
"al c #8e8d8d",
".H c #929292",
"bM c #7e7e7e",
"cl c #7c7c7c",
".U c #949494",
".v c #909090",
"bk c #929090",
"#y c #929292",
".h c #959494",
"#S c #8a8888",
"cL c #959595",
".6 c #8c8a8a",
"cD c #817f7f",
"#E c #8b8a8a",
"bC c #797777",
"#4 c #838383",
"at c #8c8c8c",
"#x c #8f8f8f",
"#H c #929292",
".i c #848484",
"aa c #8a8a8a",
"aB c #919090",
"aW c #7b7b7b",
"d. c #818080",
"bl c #7d7d7d",
"c1 c #7c7b7b",
"aE c #8a8a8a",
"ck c #8b8b8b",
".Q c #979696",
"#i c #878686",
"aP c #7e7d7d",
"bA c #838282",
"cb c #818181",
"cA c #898888",
"b. c #8c8c8c",
"aL c #868686",
"cr c #787878",
"c9 c #848585",
"#V c #929191",
"ca c #898989",
"#g c #818181",
"ae c #828181",
"aZ c #7f7f7f",
"b6 c #828282",
"#t c #858585",
".w c #898989",
"am c #868686",
".o c #818181",
"bb c #848282",
".3 c #8c8c8c",
"cS c #7d7d7d",
"ch c #777777",
"b4 c #8a8888",
"#c c #888888",
"c5 c #7b7979",
"#r c #7f7e7e",
"co c #818181",
"bs c #7b7b7b",
"#7 c #878787",
"bp c #818080",
"ao c #7f7f7f",
"c0 c #878686",
"av c #848484",
"a1 c #828282",
".A c #868686",
".a c #8d8c8c",
"bV c #7f7e7e",
"#B c #828282",
"#C c #878787",
"ay c #808080",
"ce c #7f7f7f",
"bS c #888888",
"ah c #818181",
".K c #848383",
"cI c #807f7f",
"be c #818181",
"bh c #797979",
"c. c #7c7c7c",
".N c #858585",
"#o c #868686",
"db c #868585",
"bF c #838383",
"cQ c #848484",
"cX c #797979",
".q c #838383",
"## c #838282",
"#L c #838383",
"aH c #848383",
"bu c #7e7e7e",
"cx c #7f7e7e",
"aJ c #828282",
".0 c #848484",
"aS c #7e7e7e",
"a. c #808080",
".X c #818181",
"bI c #807f7f",
"a4 c #818181",
"#O c #838383",
"ak c #7f7f7f",
"ar c #808080",
"a7 c #7c7c7c",
"bx c #7c7b7b",
"c2 c #808080",
".C c #808080",
"cF c #838282",
"cN c #787878",
"#Y c #838383",
".u c #7f7f7f",
"#z c #808080",
".g c #848484",
"b1 c #7b7b7b",
"bj c #7e7d7d",
"cu c #828282",
"cm c #7c7b7b",
"cT c #7f7f7f",
"as c #7d7d7d",
".G c #7e7e7e",
"aR c #818181",
"#w c #7e7e7e",
"#1 c #838383",
"#D c #7d7c7c",
"#I c #7f7f7f",
".9 c #848484",
"bm c #7b7b7b",
"bX c #7e7e7e",
"aC c #7f7e7e",
".R c #7e7e7e",
"aV c #818181",
"aD c #7d7d7d",
"cj c #828282",
"cE c #797979",
"bP c #7a7979",
".T c #7b7b7b",
"a9 c #7e7e7e",
"aX c #7c7c7c",
"cK c #7a7b7b",
"#R c #7b7b7b",
"ab c #828282",
"aO c #7b7b7b",
"cc c #7c7c7c",
"aM c #7c7c7c",
".j c #7f7f7f",
"c# c #7d7d7d",
"bL c #7f7f7f",
"aY c #7b7b7b",
"#j c #808080",
"b7 c #7c7c7c",
"#W c #7b7b7b",
"d# c #7e7e7e",
"b3 c #7c7b7b",
"bc c #7c7b7b",
"bD c #7a7a7a",
"c8 c #808080",
".5 c #7d7d7d",
".4 c #7b7b7b",
"#3 c #7c7c7c",
"bz c #808080",
"a2 c #7a7b7b",
"#u c #808080",
"bW c #7a7979",
"cs c #7b7b7b",
".n c #7f7e7e",
".x c #808080",
"cz c #7d7c7c",
"aT c #787878",
"an c #7f7f7f",
"bR c #797979",
"aw c #7d7d7d",
"cZ c #7f7d7d",
"#d c #7a7a7a",
"cJ c #7b7a7a",
"#f c #7e7e7e",
".b c #797979",
"aQ c #797979",
"c6 c #7a7a7a",
".z c #7f7f7f",
"ci c #7d7d7d",
"#q c #7e7e7e",
"aU c #797979",
"#8 c #7c7c7c",
"#A c #7e7e7e",
".M c #7c7c7c",
"ad c #7d7d7d",
"ax c #7c7c7c",
"bo c #7e7d7d",
"cy c #787878",
"#K c #7c7b7b",
"cP c #7c7c7c",
"cn c #7e7e7e",
".Z c #797979",
"bd c #7d7d7d",
"bJ c #7a7979",
".Y c #7d7d7d",
"#. c #787878",
"aI c #7c7c7c",
"bE c #797979",
"#X c #7a7a7a",
"ai c #7b7b7b",
"#9 c #787878",
"a3 c #7c7c7c",
".L c #7d7d7d",
"by c #777777",
"ct c #787878",
"da c #797979",
"#p c #7a7a7a",
"#2 c #7b7b7b",
"aj c #797979",
"cd c #7c7c7c",
"#l c #797979",
"#P c #7b7b7b",
"bt c #7b7b7b",
".f c #777777",
"bn c #787878",
".k c #797979",
".r c #7a7a7a",
"bi c #7b7b7b",
"ac c #787878",
"bK c #7b7b7b",
"#v c #777777",
"c7 c #787878",
".D c #797979",
"a8 c #7a7a7a",
"cY c #7b7b7b",
".y c #767676",
".m c #777777",
"#k c #787878",
"bQ c #7c7c7c",
"cO c #7e7e7e",
".d c #747474",
".E c #747575",
".l c #757575",
".e c #767676",
"#J c #767777",
".c c #777777",
".s c #787878",
"#e c #797979",
".t c #7a7a7a",
".S c #7b7b7b",
"aN c #7c7b7b",
"#Q c #7c7c7c",
".F c #7d7d7d",
"b2 c #7e7e7e",
"QtQtQtQtQtQtQtQtQtQtQtQtQtQtQtQt.#.a.b.c.d.d.d.d.d.d.d.d.d.d.d.d.d.d.d.d.d.d.d.d.e.f.g.hQtQtQtQtQtQtQtQtQtQtQtQtQtQtQt",
"QtQtQtQtQtQtQtQtQtQtQtQtQtQtQtQt.i.j.k.l.d.d.d.d.d.d.d.d.d.d.d.d.d.d.d.d.d.d.d.d.d.m.n.oQtQtQtQtQtQtQtQtQtQtQtQtQtQtQt",
"QtQtQtQtQtQtQtQtQtQtQtQtQtQtQt.p.q.r.s.d.d.d.d.d.d.d.d.d.d.d.d.d.d.d.d.d.d.d.d.d.d.l.t.u.vQtQtQtQtQtQtQtQtQtQtQtQtQtQt",
"QtQtQtQtQtQtQtQtQtQtQtQtQtQtQt.w.x.e.d.d.d.d.d.d.d.d.d.d.d.d.d.d.d.d.d.d.d.d.d.d.d.d.y.z.AQtQtQtQtQtQtQtQtQtQtQtQtQtQt",
"QtQtQtQtQtQtQtQtQtQtQtQtQtQt.B.C.D.e.d.d.d.d.d.d.d.d.d.d.d.d.d.d.d.d.d.d.d.d.d.d.d.d.E.F.G.H.IQtQtQtQtQtQtQtQtQtQtQtQt",
"QtQtQtQtQtQtQtQtQtQtQtQtQt.J.K.L.e.d.d.d.d.d.d.d.d.d.d.d.d.d.d.d.d.d.d.d.d.d.d.d.d.d.d.c.M.N.OQtQtQtQtQtQtQtQtQtQtQtQt",
"QtQtQtQtQtQtQtQtQtQtQtQt.P.Q.R.S.d.d.d.d.d.d.d.d.d.d.d.d.d.d.d.d.d.d.d.d.d.d.d.d.d.d.d.d.S.T.U.VQtQtQtQtQtQtQtQtQtQtQt",
"QtQtQtQtQtQtQtQtQtQtQtQt.W.X.Y.e.d.d.d.d.d.d.d.d.d.d.d.d.d.d.d.d.d.d.d.d.d.d.d.d.d.d.d.d.c.Z.0.1QtQtQtQtQtQtQtQtQtQtQt",
"QtQtQtQtQtQtQtQtQtQtQt.2.3.4.S.d.d.d.d.d.d.d.d.d.d.d.d.d.d.d.d.d.d.d.d.d.d.d.d.d.d.d.d.d.d.t.5.6.7QtQtQtQtQtQtQtQtQtQt",
"QtQtQtQtQtQtQtQtQtQtQt.8.9.r.l.d.d.d.d.d.d.d.d.d.d.d.d.d.d.d.d.d.d.d.d.d.d.d.d.d.d.d.d.d.d.c#.###aQtQtQtQtQtQtQtQtQtQt",
"QtQtQtQtQtQtQtQtQtQt#b#c#d#e.d.d.d.d.d.d.d.d.d.d.d.d.d.d.d.d.d.d.d.d.d.d.d.d.d.d.d.d.d.d.d.d.s#f#g#hQtQtQtQtQtQtQtQtQt",
"QtQtQtQtQtQtQtQtQtQt#i#j#k.l.d.d.d.d.d.d.d.d.d.d.d.d.d.d.d.d.d.d.d.d.d.d.d.d.d.d.d.d.d.d.d.d.e#l.X#mQtQtQtQtQtQtQtQtQt",
"QtQtQtQtQtQtQtQtQt#n#o#p.c.d.d.d.d.d.d.d.d.d.d.d.d.d.d.d.d.d.d.d.d.d.d.d.d.d.d.d.d.d.d.d.d.d.d.c#q#r#sQtQtQtQtQtQtQtQt",
"QtQtQtQtQtQtQtQtQt#t#u#v.d.d.d.d.d.d.d.d.d.d.d.d.d.d.d.d.d.d.d.d.d.d.d.d.d.d.d.d.d.d.d.d.d.d.d.e#e#w#xQtQtQtQtQtQtQtQt",
"QtQtQtQtQtQtQtQt#y#z.S.e.d.d.d.d.d.d.d.d.d.d.d.d.d.d.d.d.d.d.d.d.d.d.d.d.d.d.d.d.d.d.d.d.d.d.d.d.l#A#BQtQtQtQtQtQtQtQt",
"QtQtQtQtQtQtQtQt#C#q.l.d.d.d.d.d.d.d.d.d.d.d.d.d.d.d.d.d.d.d.d.d.d.d.d.d.d.d.d.d.d.d.d.d.d.d.d.d.l.F#D#E#FQtQtQtQtQtQt",
"QtQtQtQtQtQt#G#H#I.S.d.d.d.d.d.d.d.d.d.d.d.d.d.d.d.d.d.d.d.d.d.d.d.d.d.d.d.d.d.d.d.d.d.d.d.d.d.d.d#J#K#L#MQtQtQtQtQtQt",
"QtQtQtQtQtQt#N#O#P.e.d.d.d.d.d.d.d.d.d.d.d.d.d.d.d.d.d.d.d.d.d.d.d.d.d.d.d.d.d.d.d.d.d.d.d.d.d.d.d.d#Q#R#S#TQtQtQtQtQt",
"QtQtQtQtQt#U#V#W.t.d.d.d.d.d.d.d.d.d.d.d.d.d.d.d.d.d.d.d.d.d.d.d.d.d.d.d.d.d.d.d.d.d.d.d.d.d.d.d.d.d.e#X#Y#ZQtQtQtQtQt",
"QtQtQtQtQt#0#1#2.l.d.d.d.d.d.d.d.d.d.d.d.d.d.d.d.d.d.d.d.d.d.d.d.d.d.d.d.d.d.d.d.d.d.d.d.d.d.d.d.d.d.d.t#3#4#5QtQtQtQt",
"QtQtQtQt#6#7#8.t.d.d.d.d.d.d.d.d.d.d.d.d.d.d.d.d.d.d.d.d.d.d.d.d.d.d.d.d.d.d.d.d.d.d.d.d.d.d.d.d.d.d.d.e#9a.a#QtQtQtQt",
"QtQtQtQtaaabac.l.d.d.d.d.d.d.d.d.d.d.d.d.d.d.d.d.d.d.d.d.d.d.d.d.d.d.d.d.d.d.d.d.d.d.d.d.d.d.d.d.d.d.d.d.sadaeafQtQtQt",
"QtQtQtagahai.e.d.d.d.d.d.d.d.d.d.d.d.d.d.d.d.d.d.d.d.d.d.d.d.d.d.d.d.d.d.d.d.d.d.d.d.d.d.d.d.d.d.d.d.d.d.eajakalQtQtQt",
"QtQtQtaman.e.d.d.d.d.d.d.d.d.d.d.d.d.d.d.d.d.d.d.d.d.d.d.d.d.d.d.d.d.d.d.d.d.d.d.d.d.d.d.d.d.d.d.d.d.d.d.d.c.YaoapQtQt",
"QtQtaqar.t.e.d.d.d.d.d.d.d.d.d.d.d.d.d.d.d.d.d.d.d.d.d.d.d.d.d.d.d.d.d.d.d.d.d.d.d.d.d.d.d.d.d.d.d.d.d.d.d.e.tasatQtQt",
"Qtauavaw.e.d.d.d.d.d.d.d.d.d.d.d.d.d.d.d.d.d.d.d.d.d.d.d.d.d.d.d.d.d.d.d.d.d.d.d.d.d.d.d.d.d.d.d.d.d.d.d.d.d.eaxayazQt",
"aAaBaC.F.d.d.d.d.d.d.d.d.d.d.d.d.d.d.d.d.d.d.d.d.d.d.d.d.d.d.d.d.d.d.d.d.d.d.d.d.d.d.d.d.d.d.d.d.d.d.d.d.d.d.d.FaDaEaF",
"aGaH#K.c.d.d.d.d.d.d.d.d.d.d.d.d.d.d.d.d.d.d.d.d.d.d.d.d.d.d.d.d.d.d.d.d.d.d.d.d.d.d.d.d.d.d.d.d.d.d.d.d.d.d.d.caIaJaK",
"aLaMaN.l.d.d.d.d.d.d.d.d.d.d.d.d.d.d.d.d.d.d.d.d.d.d.d.d.d.d.d.d.d.d.d.d.d.d.d.d.d.d.d.d.d.d.d.d.d.d.d.d.d.d.d.l#QaOaP",
"#1aQ#J.d.d.d.d.d.d.d.d.d.d.d.d.d.d.d.d.d.d.d.d.d.d.d.d.d.d.d.d.d.d.d.d.d.d.d.d.d.d.d.d.d.d.d.d.d.d.d.d.d.d.d.d.d.s.baR",
"aSaT.c.d.d.d.d.d.d.d.d.d.d.d.d.d.d.d.d.d.d.d.d.d.d.d.d.d.d.d.d.d.d.d.d.d.d.d.d.d.d.d.d.d.d.d.d.d.d.d.d.d.d.d.d.d.caUaV",
"aWaX.F.l.d.d.d.d.d.d.d.d.d.d.d.d.d.d.d.d.d.d.d.d.d.d.d.d.d.d.d.d.d.d.d.d.d.d.d.d.d.d.d.d.d.d.d.d.d.d.d.d.d.d.d.l.FaYaZ",
"a0a1a2.s.d.d.d.d.d.d.d.d.d.d.d.d.d.d.d.d.d.d.d.d.d.d.d.d.d.d.d.d.d.d.d.d.d.d.d.d.d.d.d.d.d.d.d.d.d.d.d.d.d.d.d.ca3a4a5",
".7a6a7a8.d.d.d.d.d.d.d.d.d.d.d.d.d.d.d.d.d.d.d.d.d.d.d.d.d.d.d.d.d.d.d.d.d.d.d.d.d.d.d.d.d.d.d.d.d.d.d.d.d.d.d#Qa9b.b#",
"Qtbabbbc#e.l.d.d.d.d.d.d.d.d.d.d.d.d.d.d.d.d.d.d.d.d.d.d.d.d.d.d.d.d.d.d.d.d.d.d.d.d.d.d.d.d.d.d.d.d.d.d.d.d.ebdbebf.7",
"QtQtbgbhbi.c.d.d.d.d.d.d.d.d.d.d.d.d.d.d.d.d.d.d.d.d.d.d.d.d.d.d.d.d.d.d.d.d.d.d.d.d.d.d.d.d.d.d.d.d.d.d.d.l#ebjbkQtQt",
"QtQtQtblbmbn.l.d.d.d.d.d.d.d.d.d.d.d.d.d.d.d.d.d.d.d.d.d.d.d.d.d.d.d.d.d.d.d.d.d.d.d.d.d.d.d.d.d.d.d.d.d.d.cbobpbqQtQt",
"QtQtQtbrbsaI.s.d.d.d.d.d.d.d.d.d.d.d.d.d.d.d.d.d.d.d.d.d.d.d.d.d.d.d.d.d.d.d.d.d.d.d.d.d.d.d.d.d.d.d.d.d.cbtbubvQtQtQt",
"QtQtQtQtbwbxby.c.d.d.d.d.d.d.d.d.d.d.d.d.d.d.d.d.d.d.d.d.d.d.d.d.d.d.d.d.d.d.d.d.d.d.d.d.d.d.d.d.d.d.d.d.mbzbAQtQtQtQt",
"QtQtQtQtbBbCbD#e.d.d.d.d.d.d.d.d.d.d.d.d.d.d.d.d.d.d.d.d.d.d.d.d.d.d.d.d.d.d.d.d.d.d.d.d.d.d.d.d.d.d.d.sbEbFbGQtQtQtQt",
"QtQtQtQtQtbHbIbJ.s.d.d.d.d.d.d.d.d.d.d.d.d.d.d.d.d.d.d.d.d.d.d.d.d.d.d.d.d.d.d.d.d.d.d.d.d.d.d.d.d.d.dbKbLbMbNQtQtQtQt",
"QtQtQtQtQt.7bObPbQ.l.d.d.d.d.d.d.d.d.d.d.d.d.d.d.d.d.d.d.d.d.d.d.d.d.d.d.d.d.d.d.d.d.d.d.d.d.d.d.d.d.sbRbSbTQtQtQtQtQt",
"QtQtQtQtQtQtbUbVbW.c.d.d.d.d.d.d.d.d.d.d.d.d.d.d.d.d.d.d.d.d.d.d.d.d.d.d.d.d.d.d.d.d.d.d.d.d.d.d.d.laNbXbY.7QtQtQtQtQt",
"QtQtQtQtQtQtbZb0b1b2.l.d.d.d.d.d.d.d.d.d.d.d.d.d.d.d.d.d.d.d.d.d.d.d.d.d.d.d.d.d.d.d.d.d.d.d.d.d.d#eb3b4b5QtQtQtQtQtQt",
"QtQtQtQtQtQtQtQtb6b7.c.l.d.d.d.d.d.d.d.d.d.d.d.d.d.d.d.d.d.d.d.d.d.d.d.d.d.d.d.d.d.d.d.d.d.d.d.d.l.Sa.b8QtQtQtQtQtQtQt",
"QtQtQtQtQtQtQtQtb9c..r.e.d.d.d.d.d.d.d.d.d.d.d.d.d.d.d.d.d.d.d.d.d.d.d.d.d.d.d.d.d.d.d.d.d.d.d.l.sc#caQtQtQtQtQtQtQtQt",
"QtQtQtQtQtQtQtQtQtcbcc.D.e.d.d.d.d.d.d.d.d.d.d.d.d.d.d.d.d.d.d.d.d.d.d.d.d.d.d.d.d.d.d.d.d.d.d.ccdcecfQtQtQtQtQtQtQtQt",
"QtQtQtQtQtQtQtQtQtcgchci#e.d.d.d.d.d.d.d.d.d.d.d.d.d.d.d.d.d.d.d.d.d.d.d.d.d.d.d.d.d.d.d.d.d.l.DcjckQtQtQtQtQtQtQtQtQt",
"QtQtQtQtQtQtQtQtQtQtclcmby.e.d.d.d.d.d.d.d.d.d.d.d.d.d.d.d.d.d.d.d.d.d.d.d.d.d.d.d.d.d.d.d.d#ecncocpQtQtQtQtQtQtQtQtQt",
"QtQtQtQtQtQtQtQtQtQtcqcrcs.t.d.d.d.d.d.d.d.d.d.d.d.d.d.d.d.d.d.d.d.d.d.d.d.d.d.d.d.d.d.d.d.lctcucvQtQtQtQtQtQtQtQtQtQt",
"QtQtQtQtQtQtQtQtQtQtQtcwcxcy.c.d.d.d.d.d.d.d.d.d.d.d.d.d.d.d.d.d.d.d.d.d.d.d.d.d.d.d.d.d.d.tczcAcBQtQtQtQtQtQtQtQtQtQt",
"QtQtQtQtQtQtQtQtQtQtQtcCcDcE.t.d.d.d.d.d.d.d.d.d.d.d.d.d.d.d.d.d.d.d.d.d.d.d.d.d.d.d.d.d.cbJcFcGQtQtQtQtQtQtQtQtQtQtQt",
"QtQtQtQtQtQtQtQtQtQtQtQtcHcIcJ.s.E.d.d.d.d.d.d.d.d.d.d.d.d.d.d.d.d.d.d.d.d.d.d.d.d.d.d.d.ScKcL.7QtQtQtQtQtQtQtQtQtQtQt",
"QtQtQtQtQtQtQtQtQtQtQtQtQtcMcNcO.l.d.d.d.d.d.d.d.d.d.d.d.d.d.d.d.d.d.d.d.d.d.d.d.d.d.d.ccPcQcRQtQtQtQtQtQtQtQtQtQtQtQt",
"QtQtQtQtQtQtQtQtQtQtQtQtQtQtcSbD.e.d.d.d.d.d.d.d.d.d.d.d.d.d.d.d.d.d.d.d.d.d.d.d.d.d.l.FcTcUcVQtQtQtQtQtQtQtQtQtQtQtQt",
"QtQtQtQtQtQtQtQtQtQtQtQtQtQtcWcXcY.c.d.d.d.d.d.d.d.d.d.d.d.d.d.d.d.d.d.d.d.d.d.d.d.d.ecZc0QtQtQtQtQtQtQtQtQtQtQtQtQtQt",
"QtQtQtQtQtQtQtQtQtQtQtQtQtQtQtc1.T#v.l.d.d.d.d.d.d.d.d.d.d.d.d.d.d.d.d.d.d.d.d.d.d.l.tc2c3QtQtQtQtQtQtQtQtQtQtQtQtQtQt",
"QtQtQtQtQtQtQtQtQtQtQtQtQtQtQtc4c5c6.s.d.d.d.d.d.d.d.d.d.d.d.d.d.d.d.d.d.d.d.d.d.lc7c8c9QtQtQtQtQtQtQtQtQtQtQtQtQtQtQt",
"QtQtQtQtQtQtQtQtQtQtQtQtQtQtQtQtd.d#.s.d.d.d.d.d.d.d.d.d.d.d.d.d.d.d.d.d.d.d.d.d.cdadbdcQtQtQtQtQtQtQtQtQtQtQtQtQtQtQt"};
