/* XPM */
static char *dummy[]={
"59 59 421 2",
"Qt c None",
"ed c None",
"dQ c None",
".R c None",
"e# c None",
"al c None",
".y c None",
".z c None",
"ak c None",
".S c None",
"dY c #8a8a8a",
"du c #e2e2e2",
"d7 c #eeeeee",
"ea c #f5f5f5",
".9 c #f9f9f9",
"em c #fafafa",
".# c #fbfbfb",
"#p c #ffffff",
"eI c #a3a3a3",
"aI c #f8f8f8",
"aQ c #ffffff",
"aH c #848484",
"bd c #d5d5d5",
"#q c #ffffff",
"aJ c #afafaf",
"e. c #d1d1d1",
"eu c #ffffff",
"dX c #888888",
"ev c #f8f8f8",
"el c #ffffff",
"cW c #ffffff",
"cc c #454545",
"c6 c #a5a5a5",
"dD c #b3b3b3",
"dU c #c6c6c6",
"dN c #c9c9c9",
"c1 c #ffffff",
"cb c #989898",
"bW c #b2b2b2",
"am c #a4a4a4",
"bq c #cecece",
"da c #a9a9a9",
"ca c #e9e9e9",
"cV c #fcfcfc",
"cX c #494949",
"d5 c #797979",
"cm c #6a6a6a",
"er c #b5b5b5",
"ew c #7c7c7c",
"eF c #7e7e7e",
"et c #828282",
"a2 c #747474",
"c0 c #969696",
"bj c #b5b5b5",
"ds c #7c7c7c",
"aS c #8d8d8d",
"ep c #9e9e9e",
"ec c #969696",
".x c #727272",
"az c #4d4d4d",
"d# c #7c7c7c",
"dx c #7e7e7e",
"eB c #717171",
"bG c #797979",
"a0 c #6b6b6b",
"c# c #6d6d6d",
"dy c #6e6e6e",
"cF c #a8a8a8",
".T c #646464",
"#. c #777777",
".i c #878787",
".g c #626262",
"b2 c #666666",
"ej c #686868",
"c4 c #626262",
"d8 c #5a5a5a",
"dk c #676767",
"#L c #6b6b6b",
"cU c #7c7c7c",
"eG c #646464",
"eb c #767676",
".A c #5b5b5b",
"ey c #6d6d6d",
".h c #626262",
"dc c #898989",
"c3 c #505050",
"db c #848484",
"cn c #999999",
"ay c #5a5a5a",
".a c #5f5f5f",
"aR c #7d7d7d",
"cT c #494949",
".8 c #585858",
"dr c #5a5a5a",
"bJ c #696969",
"ef c #757575",
"## c #515151",
"#4 c #555555",
".j c #5d5d5d",
"dV c #606060",
"aP c #545454",
"dd c #616161",
"eH c #575757",
".Q c #606060",
"en c #545454",
"ee c #5a5a5a",
"dn c #585858",
"dv c #515151",
"ei c #515151",
"dF c #595959",
"dG c #656565",
"eq c #676767",
"d3 c #4a4a4a",
".w c #484848",
"dR c #676767",
"es c #808080",
"dp c #4d4d4d",
".f c #5b5b5b",
"d1 c #4f4f4f",
"aT c #464646",
"bK c #5f5f5f",
"dM c #7f7f7f",
"br c #4d4d4d",
"dP c #545454",
"c7 c #585858",
"ek c #5d5d5d",
"d6 c #6f6f6f",
"cY c #454545",
"dK c #525252",
"bX c #636363",
"#r c #434343",
"bf c #4c4c4c",
"ez c #535353",
".c c #454545",
"bl c #474747",
"cJ c #4d4d4d",
".b c #555555",
"cD c #5b5b5b",
"bI c #5e5e5e",
"d4 c #393939",
"dC c #484848",
"#o c #4f4f4f",
"dL c #4f4f4f",
"dJ c #535353",
"eh c #515151",
".v c #434343",
"ck c #545454",
"aj c #727272",
".e c #424242",
".B c #4b4b4b",
"#3 c #535353",
".d c #353535",
"dj c #474747",
"dI c #535353",
"eg c #565656",
"c9 c #484848",
"cK c #575757",
"a9 c #464646",
"bk c #4b4b4b",
"bV c #444444",
"dT c #585858",
"d2 c #525252",
"b1 c #464646",
"#K c #4d4d4d",
"aZ c #434343",
"dl c #383838",
".C c #616161",
"dZ c #474747",
"dt c #4a4a4a",
"eC c #4f4f4f",
"de c #484848",
"be c #545454",
"cG c #3b3b3b",
"b3 c #8b8b8b",
"bs c #4a4a4a",
"d0 c #5d5d5d",
"c8 c #4f4f4f",
"bL c #494949",
"dA c #444444",
"bF c #464646",
"do c #515151",
"dm c #393939",
"eE c #545454",
"cC c #434343",
"eo c #4c4c4c",
"a3 c #3f3f3f",
"bt c #656565",
"dq c #4f4f4f",
"dg c #3f3f3f",
"dO c #424242",
"a1 c #484848",
"cH c #343434",
".U c #333333",
".P c #4c4c4c",
"aK c #363636",
"dH c #535353",
".u c #3c3c3c",
"cI c #474747",
"d9 c #444444",
"cz c #474747",
".7 c #2c2c2c",
"dz c #4d4d4d",
"aG c #6a6a6a",
"aA c #575757",
"dB c #3e3e3e",
"cj c #323232",
"d. c #434343",
"dS c #494949",
".k c #303030",
"#M c #2f2f2f",
"ex c #414141",
"a8 c #303030",
"#s c #333333",
"dW c #535353",
"bY c #4c4c4c",
"eA c #494949",
"bm c #4f4f4f",
"cd c #929292",
"b0 c #484848",
"c2 c #383838",
"bH c #4c4c4c",
"dw c #434343",
"cS c #242424",
"eD c #434343",
"c. c #313131",
"b. c #464646",
"cR c #363636",
"bZ c #4c4c4c",
"c5 c #515151",
"cL c #3b3b3b",
"bg c #484848",
"cB c #373737",
"cA c #434343",
"bM c #4d4d4d",
"cZ c #373737",
"an c #242424",
"dh c #353535",
"cu c #424242",
"#a c #232323",
"bc c #292929",
"cl c #343434",
"dE c #494949",
"ct c #3d3d3d",
"cM c #3a3a3a",
"bU c #333333",
"di c #2c2c2c",
"bp c #313131",
"ch c #383838",
"bi c #343434",
"#5 c #242424",
"cv c #373737",
"cy c #333333",
"cE c #242424",
".O c #444444",
".D c #282828",
"#t c #434343",
".t c #282828",
"df c #282828",
"bT c #202020",
"cw c #343434",
".r c #4c4c4c",
"#n c #2e2e2e",
"cQ c #2f2f2f",
"ci c #202020",
".l c #3a3a3a",
".V c #3b3b3b",
"ax c #696969",
"co c #7f7f7f",
"cs c #333333",
"cO c #3a3a3a",
".s c #1d1d1d",
"cN c #343434",
".6 c #5e5e5e",
"#u c #727272",
"bN c #777777",
"cx c #272727",
"cP c #2e2e2e",
"aO c #444444",
"#J c #484848",
"ai c #545454",
"cr c #2d2d2d",
".q c #5b5b5b",
"cg c #262626",
"#2 c #999999",
"b6 c #161616",
"bC c #171717",
"bP c #181818",
"b8 c #191919",
"bR c #1a1a1a",
"b9 c #1b1b1b",
"b7 c #1c1c1c",
"bE c #1e1e1e",
"ao c #1f1f1f",
"bQ c #202020",
"aB c #212121",
"bx c #222222",
"bo c #232323",
"bS c #242424",
"#b c #252525",
"#6 c #262626",
".o c #272727",
".N c #282828",
"#m c #292929",
"a7 c #2a2a2a",
"bB c #2c2c2c",
"cf c #2d2d2d",
"bh c #2e2e2e",
"ce c #2f2f2f",
"cq c #303030",
"bn c #313131",
"bz c #333333",
"bb c #353535",
"b5 c #363636",
"cp c #393939",
"#w c #3a3a3a",
"bA c #3b3b3b",
"bD c #3c3c3c",
".E c #3d3d3d",
"aC c #3e3e3e",
"by c #3f3f3f",
"b4 c #424242",
"#Z c #434343",
"#S c #444444",
"#B c #454545",
"aU c #464646",
".p c #474747",
".M c #484848",
"#W c #494949",
"#j c #4a4a4a",
"#F c #4b4b4b",
".X c #4c4c4c",
"#c c #4d4d4d",
".G c #4e4e4e",
".J c #4f4f4f",
".3 c #505050",
".K c #515151",
".Y c #525252",
".F c #535353",
".5 c #545454",
"#f c #555555",
"bO c #565656",
".Z c #585858",
"#E c #595959",
".m c #5a5a5a",
"#v c #5b5b5b",
"at c #5d5d5d",
"bv c #5e5e5e",
"bw c #5f5f5f",
"aD c #606060",
"#e c #616161",
"a6 c #626262",
"#h c #636363",
"#8 c #646464",
".1 c #656565",
"#H c #666666",
"aM c #676767",
".I c #686868",
"aE c #696969",
".W c #6a6a6a",
"aL c #6b6b6b",
"aX c #6c6c6c",
"#x c #6d6d6d",
"ae c #6e6e6e",
".L c #6f6f6f",
"#V c #707070",
"aF c #717171",
"#O c #727272",
".2 c #737373",
"#0 c #747474",
".4 c #757575",
".n c #767676",
"au c #777777",
"#T c #787878",
"bu c #797979",
"#d c #7a7a7a",
".H c #7b7b7b",
"ba c #7c7c7c",
"aN c #7d7d7d",
"a5 c #7e7e7e",
"aW c #808080",
"#C c #828282",
"b# c #848484",
"ag c #858585",
"ab c #878787",
"av c #888888",
"aY c #8a8a8a",
"a4 c #8b8b8b",
"#l c #8c8c8c",
"aV c #8d8d8d",
"#A c #949494",
".0 c #959595",
"a# c #9a9a9a",
"aq c #a2a2a2",
"#Y c #a3a3a3",
"a. c #a6a6a6",
"#k c #a9a9a9",
"#N c #aeaeae",
"#7 c #afafaf",
"ac c #b2b2b2",
"#y c #b4b4b4",
"#i c #c0c0c0",
"#R c #c1c1c1",
"ad c #c4c4c4",
"ar c #c5c5c5",
"#G c #c6c6c6",
"#X c #c9c9c9",
"#Q c #d2d2d2",
"#g c #d3d3d3",
"#I c #d4d4d4",
"aw c #dfdfdf",
"aa c #e0e0e0",
"ah c #e2e2e2",
"as c #e5e5e5",
"#z c #e6e6e6",
"#1 c #e9e9e9",
"af c #eeeeee",
"#D c #efefef",
"#P c #f4f4f4",
"#9 c #f7f7f7",
"#U c #fcfcfc",
"ap c #ffffff",
"QtQtQtQtQtQtQtQtQtQtQtQtQtQtQtQtQtQtQtQtQtQtQtQtQtQtQtQtQtQtQtQtQtQtQtQtQtQtQtQtQtQtQtQtQtQtQtQtQtQtQtQtQtQtQtQtQtQtQt",
"QtQtQtQtQtQtQtQtQtQtQtQtQtQtQtQtQtQtQtQtQtQtQtQtQtQtQtQtQtQtQtQtQtQtQtQtQtQtQtQtQtQtQtQtQtQtQtQtQtQtQtQtQtQtQtQtQtQtQt",
"QtQtQtQtQtQtQtQtQtQtQtQtQtQtQtQtQtQtQtQtQtQtQtQtQtQtQtQtQtQtQtQtQtQtQtQtQtQtQtQtQtQtQtQtQtQtQtQtQtQtQtQtQtQtQtQtQtQtQt",
"QtQtQtQtQtQtQtQtQtQtQtQtQtQtQtQtQtQtQtQtQtQtQtQtQtQtQtQtQtQtQtQtQtQtQtQtQtQtQtQtQtQtQtQtQtQtQtQtQtQtQtQtQtQtQtQtQtQtQt",
"QtQtQtQtQtQtQtQtQtQtQtQtQtQtQtQtQtQtQtQtQtQtQtQtQtQtQtQtQtQtQtQtQtQtQtQtQtQtQtQtQtQtQtQtQtQtQtQtQtQtQtQtQtQtQtQtQtQtQt",
"QtQtQtQtQtQtQtQtQtQtQtQtQtQtQtQtQtQtQtQtQtQtQtQtQtQtQtQtQtQtQtQtQtQtQtQtQtQtQtQtQtQtQtQtQtQtQtQtQtQtQtQtQtQtQtQtQtQtQt",
"QtQtQtQtQtQtQtQtQtQtQtQtQtQtQtQtQtQtQtQtQtQtQtQtQtQtQtQtQtQtQtQtQtQtQtQtQtQtQtQtQtQtQtQtQtQtQtQtQtQtQtQtQtQtQtQtQtQtQt",
"QtQtQtQtQtQtQtQtQtQtQtQtQtQtQtQtQtQtQtQtQtQtQtQtQtQtQtQtQtQtQtQtQtQtQtQtQtQtQtQtQtQtQtQtQtQtQtQtQtQtQtQtQtQtQtQtQtQtQt",
"QtQtQtQtQtQtQtQtQtQtQtQtQtQtQtQtQtQtQtQtQtQtQtQtQtQtQtQtQtQtQtQtQtQtQtQtQtQtQtQtQtQtQtQtQtQtQtQtQtQtQtQtQtQtQtQtQtQtQt",
"QtQtQtQtQtQtQtQtQtQtQtQtQtQtQtQtQtQtQtQtQtQtQtQtQtQtQtQtQtQtQtQtQtQtQtQtQtQtQtQtQtQtQtQtQtQtQtQtQtQtQtQtQtQtQtQtQtQtQt",
"QtQtQtQtQtQtQtQtQtQtQtQtQtQtQtQtQtQtQtQtQtQtQtQtQtQtQtQtQtQtQtQtQtQtQtQtQtQtQtQtQtQtQtQtQtQtQtQtQtQtQtQtQtQtQtQtQtQtQt",
"QtQtQtQtQtQtQtQtQtQtQtQtQtQtQtQtQtQtQtQtQtQtQtQtQtQtQtQtQtQtQtQtQtQtQtQtQtQtQtQtQtQtQtQtQtQtQtQtQtQtQtQtQtQtQtQtQtQtQt",
"QtQtQtQtQtQtQtQtQtQtQtQtQtQtQtQtQtQtQtQtQtQtQtQtQtQtQtQtQtQtQtQtQtQtQtQtQtQtQtQtQtQtQtQtQtQtQtQtQtQtQtQtQtQtQtQtQtQtQt",
"QtQtQtQtQtQtQtQtQtQtQtQtQtQtQtQtQtQtQtQtQtQtQtQtQt.#QtQt.a.b.c.d.e.f.g.h.iQtQtQtQtQtQtQtQtQtQtQtQtQtQtQtQtQtQtQtQtQtQt",
"QtQtQtQtQtQtQtQtQtQtQtQtQtQtQtQtQtQtQtQtQtQtQtQtQtQt.j.k.l.m.n.o.p.q.r.s.t.u.v.w.xQtQtQt.y.zQtQtQtQtQtQtQtQtQtQtQtQtQt",
"QtQtQtQtQtQtQtQtQtQtQtQtQtQtQtQtQtQtQtQtQtQtQt.A.B.C.D.E.F.G.H.I.J.K.L.E.M.G.M.N.O.P.QQtQt.RQtQtQtQtQtQtQtQtQtQtQtQtQt",
"QtQtQtQtQtQtQtQtQtQtQtQtQtQtQtQtQt.SQtQtQt.T.U.V.G.W.I.X.Y.K.Z.0.X.J.1.2.G.3.4.F.Y.5.6.7.8QtQt.9QtQtQtQtQtQtQtQtQtQtQt",
"QtQtQtQtQtQtQtQtQtQtQtQtQtQtQtQtQtQtQt#.###a#b.3.Y#c#d#e.G.K#f#g#h.X.n#i#j#c#k.I.G.Y#l#m#n#oQt#pQtQtQtQtQtQtQtQtQtQtQt",
"QtQtQtQtQtQtQtQtQtQtQtQtQtQtQtQt#q#r#s#t#u#v#w.F.K.G#x#y#j.K#f#z#A#B#C#D#E#F#G#C.M#H#I.F.J#J#KQt.SQtQtQtQtQtQtQtQtQtQt",
"QtQtQtQtQtQtQtQtQtQtQtQt.z.SQt#L#M.o.p.Y.J#N.n#j.K#c#O#P#H.G.G#Q#R#S#T#U#V#W#X#Y#Z#0#1.m.G.m#2#3QtQtQtQtQtQtQtQtQtQtQt",
"QtQtQtQtQtQtQtQtQtQtQtQt.yQt#4#5#6.X.F.K#j#7#z.5.J.J#8#9a..M#ja#aa#c.Zaaab#Sacad#Saeaf#h#WagahaiajQtakQtQtQtQtQtQtQtQt",
"QtQtQtQtQtQtQtQtQtQtQtalQtamanao#F.Y.K.K#F.0apaq.p.K#caras.3.Jatad#v.Xaeau#W.4ar.X#f#g.2.pavawaeaxayQt.zQtQtQtQtQtQtQt",
"QtQtQtQtQtQtQtQtQtQtQt.SazaAaBaC.F.K.K.K.G.1#Dah.K.K.GaD#7#H.G.X.n.1.J.YaE.G.G#d#f#c.n.L#F#h#XaF.HaGaH.zQtQtQtQtQtQtQt",
"QtQtQtQtQtaIQt.SQtQtQtaJaK#O#S.G.K.K.K.K.K#F#A#9aF#c.K#FaL#x.G.GaLaM.G.YaL.G.G#V.Z.3.5#e.J#c.H#daNaOaPQtQtQtQtQtQtQtQt",
"QtQtQtQtQtaQaRaSQtQtQtaTaUaMaV#W.3.Y.K.K.K.K#c.HaW.X.K.GaE#H.G.GaM.I.G.KaX.J.GaF.m.J#f#8.G.GaXaY.F#maZQtQtQtQtQtQtQtQt",
"QtQtQtQtQta0a1a2QtQt.Sa3.K#c.Ha4.F.M.J.K.K.K.3.Fa5.X.K.G.Ia6.J.J.1aL.G.3#x.3.GaF#v.J.FaM.G.G.2#8a7#ma8.SQtQtQtQtQtQtQt",
"QtQtQtQtQt#oa9QtQtQt.Sb..Y.K#c#Hb#ab#E.J.K.K.K.Kba.G.K.GaX#h.J.Ja6#V#c.JaX.Y.GaF#v.J.YaM.J.J#Vbb#6#mbcbdQtQtQtQtQtQtQt",
"QtQtQtQtQtbebfQtQtQtQtbg.F.K.K.G.G#eba.X.K.K.K.Jba.K.K.Gae#8.J.JaD#0#c.JaL.F.G.L#v.J.Y#S#c.Y#Ebh#6.obibjQtQtQtQtQtQtQt",
"QtQtQtQtQtbkblQtQtQtQtbm.Y.K.K.K.K.Gba.F.K.K.K.Gba#f.K.Y.3#j.K.Y.J#W.J.3.W.Y.K.m.3.Kbn#b.3.Ma7a7bo.NbpbqQtQtQtQtQtQtQt",
"QtQtQtQtQtbrbsQtQtQtQtbt#v.3.K.K.K#cbubv.J.K.K#cbubw.K.Ebxby#f#F#bbz.5.GbA#c#j#maCbBbC.obDaobobE#b#6bF#pQtQtQtQtQtQtQt",
"QtQtQtQtQtbGbHbIbJbKbLbMbN.Y.3.K.K.JaE.5.3.K.K.J#xbO.NbPbE#wbAbQbRbzbDbS#6aCaBbxaobPbRaBbCbP#6bTbUbVbWQtQtQtQtQtQtQtQt",
"QtQtQtQtQt.SbXbYbZb0b1b2b3#d#c.K.Y.Y#wb4.Y.K.F.Gb5#6b6bRbE#6b6bPb7.obCb8bSbRbPbSb9bRb7#b#6#bc.c#caQtQtQtQtQtQtQtQtQtQt",
"QtQtQtQtQtQtQtQtcb#pQtQtcccd#0.3#cce.o#W.5.F#B#bbP.Nb9b9b8#bbSbQbE#mbRb9.Nb7bR#mcfcgchcicjckclcmQtQt.yQtQtQtQtQtQtQtQt",
"QtQtQtQtQtQtQtQtQtQtQtQtQtcncocpbEbPbB.M#BcqbRbCbPbo.NbocrcsctcucvcwcxcyczcAcBcCcDcEcFcGcHQtcIcJQtQtQtQtQtQtQtQtQtQtQt",
"QtQtQtQtQtQtQtQtQtQtQtQtQtcKcLcMcNcOcP#6aobEaoaB.NcQcRcScTcUcVcWcXcYcZc0#pc1#qQtQtc2c3c4c5c6c7c8QtQtQtQtQtQtQtQtQtQtQt",
"QtQtQtQtQtQtQtQtQtQtQtQtc9d.d#dadbdcdddedfdgdhdidjdkdldmQtQtQtQtQtdnb.QtQtQtQtQtQtdodpQtdqdrdsdtduQtQtQtQtQtQtQtQtQtQt",
"QtQtQtQtQtQtQtQtQtQtQtdvdwdxQtQtQtQtdydzdAQtdBdCQtdDdEdFQtQtQtQtQtdGdHQtQtQtQtQtQtdIdJQtdKdLQtdMdNQtQtQtQtQtQtQtQtQtQt",
"QtQtQtQtQtQtQtQtQtQt#pdOdPQtalQtdQdRdSdTdUdVdWdXdYdZd0QtQtQtQtQtQtd1d2QtQtQtQtQtQtd3d4Qtd5d6.SQtd7QtQtQtQtQtQtQtQtQtQt",
"QtQtQtQtQtQtQtQtQtQtd8d9e.e#QtQteaebecQteddteeQtefeg#pQtQtQtQtQtQteheiQtQtQtQtQtQtejekQtQtelemQtQtQtQtQtQtQtQtQtQtQtQt",
"QtQtQtQtQtQtQtQtQtQteneoQtQtQtQtQtQtQtQtepeqQtQteraQQtQtQtQtQtQtQtesetQtQtQtQtQt.zeuevQtQtQtQtQtQtQtQtQtQtQtQtQtQtQtQt",
"QtQtQtQtQtQtQtQtQtQtewexeyQtalQtQtQtQtQtaQQtQtQt#p.SQtQtQtQtQtQtQt.SQtQtQtQtQtQt.y.SQtQtQtQtQtQtQtQtQtQtQtQtQtQtQtQtQt",
"QtQtQtQtQtQtQtQtQtQtQtezeAeBQtQtQtQtQtQtQtQtQtQtQtQtQtQtQtQtQtQtQtQtQtQtQtQtQtQtQtQtQtQtQtQtQtQtQtQtQtQtQtQtQtQtQtQtQt",
"QtQtQtQtQtQtQtQtQtQt.S#peCeDeEeFQtQtQtQtQtQtQtQtQtQtQtQtQtQtQtQtQtQtQtQtQtQtQtQtQtQtQtQtQtQtQtQtQtQtQtQtQtQtQtQtQtQtQt",
"QtQtQtQtQtQtQtQtQtQtQtaQQteGeHeIQtQtQtQtQtQtQtQtQtQtQtQtQtQtQtQtQtQtQtQtQtQtQtQtQtQtQtQtQtQtQtQtQtQtQtQtQtQtQtQtQtQtQt",
"QtQtQtQtQtQtQtQtQtQtQt.yQtQtQtQtQtQtQtQtQtQtQtQtQtQtQtQtQtQtQtQtQtQtQtQtQtQtQtQtQtQtQtQtQtQtQtQtQtQtQtQtQtQtQtQtQtQtQt",
"QtQtQtQtQtQtQtQtQtQtQtQtQtQtQtQtQtQtQtQtQtQtQtQtQtQtQtQtQtQtQtQtQtQtQtQtQtQtQtQtQtQtQtQtQtQtQtQtQtQtQtQtQtQtQtQtQtQtQt",
"QtQtQtQtQtQtQtQtQtQtQtQtQtQtQtQtQtQtQtQtQtQtQtQtQtQtQtQtQtQtQtQtQtQtQtQtQtQtQtQtQtQtQtQtQtQtQtQtQtQtQtQtQtQtQtQtQtQtQt",
"QtQtQtQtQtQtQtQtQtQtQtQtQtQtQtQtQtQtQtQtQtQtQtQtQtQtQtQtQtQtQtQtQtQtQtQtQtQtQtQtQtQtQtQtQtQtQtQtQtQtQtQtQtQtQtQtQtQtQt",
"QtQtQtQtQtQtQtQtQtQtQtQtQtQtQtQtQtQtQtQtQtQtQtQtQtQtQtQtQtQtQtQtQtQtQtQtQtQtQtQtQtQtQtQtQtQtQtQtQtQtQtQtQtQtQtQtQtQtQt",
"QtQtQtQtQtQtQtQtQtQtQtQtQtQtQtQtQtQtQtQtQtQtQtQtQtQtQtQtQtQtQtQtQtQtQtQtQtQtQtQtQtQtQtQtQtQtQtQtQtQtQtQtQtQtQtQtQtQtQt",
"QtQtQtQtQtQtQtQtQtQtQtQtQtQtQtQtQtQtQtQtQtQtQtQtQtQtQtQtQtQtQtQtQtQtQtQtQtQtQtQtQtQtQtQtQtQtQtQtQtQtQtQtQtQtQtQtQtQtQt",
"QtQtQtQtQtQtQtQtQtQtQtQtQtQtQtQtQtQtQtQtQtQtQtQtQtQtQtQtQtQtQtQtQtQtQtQtQtQtQtQtQtQtQtQtQtQtQtQtQtQtQtQtQtQtQtQtQtQtQt",
"QtQtQtQtQtQtQtQtQtQtQtQtQtQtQtQtQtQtQtQtQtQtQtQtQtQtQtQtQtQtQtQtQtQtQtQtQtQtQtQtQtQtQtQtQtQtQtQtQtQtQtQtQtQtQtQtQtQtQt",
"QtQtQtQtQtQtQtQtQtQtQtQtQtQtQtQtQtQtQtQtQtQtQtQtQtQtQtQtQtQtQtQtQtQtQtQtQtQtQtQtQtQtQtQtQtQtQtQtQtQtQtQtQtQtQtQtQtQtQt",
"QtQtQtQtQtQtQtQtQtQtQtQtQtQtQtQtQtQtQtQtQtQtQtQtQtQtQtQtQtQtQtQtQtQtQtQtQtQtQtQtQtQtQtQtQtQtQtQtQtQtQtQtQtQtQtQtQtQtQt",
"QtQtQtQtQtQtQtQtQtQtQtQtQtQtQtQtQtQtQtQtQtQtQtQtQtQtQtQtQtQtQtQtQtQtQtQtQtQtQtQtQtQtQtQtQtQtQtQtQtQtQtQtQtQtQtQtQtQtQt",
"QtQtQtQtQtQtQtQtQtQtQtQtQtQtQtQtQtQtQtQtQtQtQtQtQtQtQtQtQtQtQtQtQtQtQtQtQtQtQtQtQtQtQtQtQtQtQtQtQtQtQtQtQtQtQtQtQtQtQt",
"QtQtQtQtQtQtQtQtQtQtQtQtQtQtQtQtQtQtQtQtQtQtQtQtQtQtQtQtQtQtQtQtQtQtQtQtQtQtQtQtQtQtQtQtQtQtQtQtQtQtQtQtQtQtQtQtQtQtQt",
"QtQtQtQtQtQtQtQtQtQtQtQtQtQtQtQtQtQtQtQtQtQtQtQtQtQtQtQtQtQtQtQtQtQtQtQtQtQtQtQtQtQtQtQtQtQtQtQtQtQtQtQtQtQtQtQtQtQtQt"};
